<svg xmlns="http://www.w3.org/2000/svg" viewBox="0 0 10.334 10.334"><defs><style>.a,.b{fill:#fff;}.a{opacity:0;}</style></defs><g transform="translate(0 0)"><rect class="a" width="10.334" height="10.334" transform="translate(0 10.334) rotate(-90)"/><path class="b" d="M4.431,8.445H9.538L7.974,10.322a.431.431,0,1,0,.663.551L10.791,8.29a.512.512,0,0,0,.039-.065c0-.022.022-.034.03-.056a.414.414,0,0,0,0-.31c0-.022-.022-.034-.03-.056a.512.512,0,0,0-.039-.065L8.638,5.155a.431.431,0,1,0-.663.551L9.538,7.584H4.431a.431.431,0,0,0,0,.861Z" transform="translate(-2.278 -2.847)"/></g></svg>