<svg xmlns="http://www.w3.org/2000/svg" xmlns:xlink="http://www.w3.org/1999/xlink" viewBox="0 0 35 35"><defs><style>.a{fill:rgba(255,255,255,0.19);}.b{clip-path:url(#a);}.c,.d{fill:#fff;}.c{opacity:0;}</style><clipPath id="a"><rect class="a" width="35" height="35" rx="8" transform="translate(23 236)"/></clipPath></defs><g class="b" transform="translate(-23 -236)"><g transform="translate(23 236)"><rect class="c" width="35" height="35" transform="translate(35) rotate(90)"/><path class="d" d="M17.5,5.833a1.458,1.458,0,0,0-1.458,1.458V29.167a1.458,1.458,0,0,0,2.917,0V7.292A1.458,1.458,0,0,0,17.5,5.833Z"/><path class="d" d="M27.708,17.5a1.458,1.458,0,0,0-1.458,1.458V29.167a1.458,1.458,0,0,0,2.917,0V18.958A1.458,1.458,0,0,0,27.708,17.5Z"/><path class="d" d="M7.292,11.667a1.458,1.458,0,0,0-1.458,1.458V29.167a1.458,1.458,0,0,0,2.917,0V13.125A1.458,1.458,0,0,0,7.292,11.667Z"/></g></g></svg>