<svg xmlns="http://www.w3.org/2000/svg" xmlns:xlink="http://www.w3.org/1999/xlink" viewBox="0 0 35 35"><defs><style>.a{fill:rgba(255,255,255,0.19);}.b{clip-path:url(#a);}.c{opacity:0;}.d{fill:#fff;}</style><clipPath id="a"><rect class="a" width="35" height="35" rx="8" transform="translate(23 436)"/></clipPath></defs><g class="b" transform="translate(-23 -436)"><g transform="translate(23 436)"><rect class="c" width="35" height="35" transform="translate(35 35) rotate(180)"/><path class="d" d="M2.188,0A2.188,2.188,0,1,1,0,2.188,2.188,2.188,0,0,1,2.188,0Z" transform="translate(15.313 15.313)"/><path class="d" d="M29.633,13.665h-1.59c-.2,0-.35-.16-.437-.379a.5.5,0,0,1,0-.54l1.181-1.079a2.377,2.377,0,0,0,.729-1.721,2.435,2.435,0,0,0-.729-1.735l-1.954-2a2.435,2.435,0,0,0-3.456,0L22.254,7.292a.554.554,0,0,1-.6,0,.5.5,0,0,1-.321-.423v-1.5a2.45,2.45,0,0,0-2.377-2.45H16.129a2.465,2.465,0,0,0-2.465,2.45v1.59c0,.2-.16.35-.379.438a.5.5,0,0,1-.54,0L11.667,6.213a2.508,2.508,0,0,0-1.735-.729,2.406,2.406,0,0,0-1.721.729l-2,1.954a2.435,2.435,0,0,0,0,3.5l1.079,1.079a.554.554,0,0,1,0,.6.5.5,0,0,1-.423.321h-1.5a2.45,2.45,0,0,0-2.45,2.45v2.756a2.465,2.465,0,0,0,2.45,2.465h1.59c.2,0,.35.16.438.379a.5.5,0,0,1,0,.54L6.213,23.333a2.508,2.508,0,0,0-.729,1.735A2.421,2.421,0,0,0,6.213,26.8l1.954,1.983a2.435,2.435,0,0,0,3.456,0l1.123-1.079a.554.554,0,0,1,.6,0,.5.5,0,0,1,.321.423v1.59a2.45,2.45,0,0,0,2.45,2.362h2.756a2.465,2.465,0,0,0,2.465-2.45v-1.59c0-.2.16-.35.379-.437a.5.5,0,0,1,.54,0l1.108,1.123a2.508,2.508,0,0,0,1.735.729,2.406,2.406,0,0,0,1.721-.729l1.954-1.954a2.435,2.435,0,0,0,0-3.456l-1.065-1.065a.6.6,0,0,1,.423-.86h1.59a2.45,2.45,0,0,0,2.362-2.435V16.129a2.465,2.465,0,0,0-2.45-2.465ZM17.5,22.6a5.1,5.1,0,1,1,5.1-5.1,5.1,5.1,0,0,1-5.1,5.1Z"/></g></g></svg>