<svg xmlns="http://www.w3.org/2000/svg" xmlns:xlink="http://www.w3.org/1999/xlink" viewBox="0 0 35 35"><defs><style>.a{fill:rgba(255,255,255,0.19);}.b{clip-path:url(#a);}.c,.d{fill:#fff;}.c{opacity:0;}</style><clipPath id="a"><rect class="a" width="35" height="35" rx="8" transform="translate(23 371)"/></clipPath></defs><g class="b" transform="translate(-23 -371)"><g transform="translate(23 371)"><rect class="c" width="35" height="35"/><path class="d" d="M16.406,17.252,4.375,12.192V23.465a2.465,2.465,0,0,0,1.458,2.217l10.485,4.944h.087Z"/><path class="d" d="M17.5,15.313l12.41-5.206a2.362,2.362,0,0,0-.744-.554l-10.5-4.915a2.727,2.727,0,0,0-2.333,0L5.833,9.552a2.363,2.363,0,0,0-.744.554Z"/><path class="d" d="M18.594,17.252V30.625h.073l10.5-4.944a2.465,2.465,0,0,0,1.458-2.2V12.192Z"/></g></g></svg>