<svg xmlns="http://www.w3.org/2000/svg" xmlns:xlink="http://www.w3.org/1999/xlink" viewBox="0 0 35 35"><defs><style>.a{fill:rgba(255,255,255,0.19);}.b{clip-path:url(#a);}.c,.d{fill:#fff;}.c{opacity:0;}</style><clipPath id="a"><rect class="a" width="35" height="35" rx="8" transform="translate(23 501)"/></clipPath></defs><g class="b" transform="translate(-23 -501)"><g transform="translate(23 501)"><rect class="c" width="35" height="35" transform="translate(35 35) rotate(180)"/><path class="d" d="M17.5,2.917A14.583,14.583,0,1,0,32.083,17.5,14.583,14.583,0,0,0,17.5,2.917Zm0,23.333a1.458,1.458,0,1,1,1.458-1.458A1.458,1.458,0,0,1,17.5,26.25Zm1.458-7.525v1.692a1.458,1.458,0,0,1-2.917,0V17.5A1.458,1.458,0,0,1,17.5,16.042a2.188,2.188,0,1,0-2.187-2.188,1.458,1.458,0,1,1-2.917,0,5.1,5.1,0,1,1,6.562,4.871Z"/></g></g></svg>