<svg xmlns="http://www.w3.org/2000/svg" viewBox="0 0 17.637 17.637"><defs><style>.a{fill:none;stroke:#fff;stroke-width:1.5px;}</style></defs><g transform="translate(-6.44 0.75)"><g transform="translate(7.19)"><path class="a" d="M18.4,10.534a6.164,6.164,0,0,0,1.727-4.259A6.381,6.381,0,0,0,13.657,0,6.381,6.381,0,0,0,7.19,6.275a6.381,6.381,0,0,0,6.467,6.275A6.566,6.566,0,0,0,17.53,11.3l4.809,4.666a.587.587,0,0,0,.41.17.573.573,0,0,0,.41-.975ZM8.361,6.275a5.225,5.225,0,0,1,5.3-5.139,5.225,5.225,0,0,1,5.3,5.139,5.218,5.218,0,0,1-5.3,5.139A5.225,5.225,0,0,1,8.361,6.275Z" transform="translate(-7.19 0)"/></g></g></svg>