<svg xmlns="http://www.w3.org/2000/svg" xmlns:xlink="http://www.w3.org/1999/xlink" width="46.593" height="46.593" viewBox="0 0 46.593 46.593"><defs><linearGradient id="a" x1="0.5" x2="0.5" y2="1" gradientUnits="objectBoundingBox"><stop offset="0" stop-color="#ff9e80"/><stop offset="1" stop-color="#ffe88d"/></linearGradient></defs><g transform="translate(6.468 6.225)"><path d="M78.036,68.409a6.955,6.955,0,1,0,6.955,6.955A6.963,6.963,0,0,0,78.036,68.409ZM82.7,76.872h.615A5.483,5.483,0,0,1,82.4,78.7l-.737-.737a.73.73,0,0,0-1.032,1.032l.737.737a5.466,5.466,0,0,1-2.6,1.081v-.777a.73.73,0,1,0-1.459,0v.777a5.469,5.469,0,0,1-2.6-1.081l.737-.737a.73.73,0,1,0-1.032-1.032l-.737.737a5.482,5.482,0,0,1-.919-1.826h.615a.73.73,0,0,0,0-1.459h-.826c0-.016,0-.032,0-.049a5.462,5.462,0,0,1,.813-2.873l.276.276a.73.73,0,0,0,1.032-1.032l-.38-.38a5.479,5.479,0,0,1,3.025-1.438v.777a.73.73,0,0,0,1.459,0v-.777a5.5,5.5,0,0,1,3.648,2.128l-.468.468a.73.73,0,0,0,1.032,1.032l.177-.177a5.464,5.464,0,0,1,.377,2c0,.016,0,.032,0,.049H82.7a.73.73,0,0,0,0,1.459Z" transform="translate(-71.081 -68.409)" fill="url(#a)"/></g><g transform="translate(10.359 10.116)"><path d="M116.9,111.165a3.064,3.064,0,1,0,3.064,3.064A3.068,3.068,0,0,0,116.9,111.165Zm0,4.669a1.6,1.6,0,0,1-1.526-2.1l1.01,1.01a.73.73,0,0,0,1.032-1.032l-1.01-1.01a1.6,1.6,0,1,1,.494,3.131Z" transform="translate(-113.837 -111.165)" fill="url(#a)"/></g><g transform="translate(6.156 24.054)"><path d="M68.967,264.612l-.069-.069a.73.73,0,1,0-1.032,1.032l.069.069a.73.73,0,1,0,1.032-1.032Z" transform="translate(-67.653 -264.329)" fill="url(#a)"/></g><g transform="translate(6.156 27.167)"><path d="M68.967,298.817l-.069-.069a.73.73,0,0,0-1.032,1.032l.069.069a.73.73,0,1,0,1.032-1.032Z" transform="translate(-67.653 -298.535)" fill="url(#a)"/></g><g transform="translate(6.156 30.28)"><path d="M68.967,333.021l-.069-.069a.73.73,0,0,0-1.032,1.032l.069.069a.73.73,0,1,0,1.032-1.032Z" transform="translate(-67.653 -332.738)" fill="url(#a)"/></g><g transform="translate(6.156 33.392)"><path d="M68.967,367.226l-.069-.069a.73.73,0,1,0-1.032,1.032l.069.069a.73.73,0,0,0,1.032-1.032Z" transform="translate(-67.653 -366.943)" fill="url(#a)"/></g><g transform="translate(6.156 35.727)"><path d="M68.967,392.879l-.069-.069a.73.73,0,1,0-1.032,1.032l.069.069a.73.73,0,1,0,1.032-1.032Z" transform="translate(-67.653 -392.596)" fill="url(#a)"/></g><g transform="translate(6.156 20.942)"><path d="M68.967,230.407l-.069-.069a.73.73,0,1,0-1.032,1.032l.069.069a.73.73,0,1,0,1.032-1.032Z" transform="translate(-67.653 -230.124)" fill="url(#a)"/></g><path d="M45.863,24.123h-.827V21.74a.729.729,0,0,0-.73-.73H26.36V5.4a5.4,5.4,0,0,0-5.4-5.4H5.4A5.4,5.4,0,0,0,0,5.4V24.9a.73.73,0,0,0,1.459,0V5.4A3.944,3.944,0,0,1,5.4,1.459H20.962A3.944,3.944,0,0,1,24.9,5.4V21.01H23.248V5.4a2.288,2.288,0,0,0-2.286-2.286H5.4A2.288,2.288,0,0,0,3.113,5.4V37.3A2.288,2.288,0,0,0,5.4,39.589h4.718v1.654H5.4A3.944,3.944,0,0,1,1.459,37.3V28.792a.73.73,0,0,0-1.459,0V37.3a5.4,5.4,0,0,0,5.4,5.4h4.718v2.383a1.509,1.509,0,0,0,1.508,1.508H38.179a.73.73,0,1,0,0-1.459H11.624a.049.049,0,0,1-.049-.049V22.47h7.83a.049.049,0,0,1,.049.049v2.334a.729.729,0,0,0,.73.73h24.95v19.5a.049.049,0,0,1-.049.049H41.972a.73.73,0,0,0,0,1.459h3.113a1.509,1.509,0,0,0,1.508-1.508V24.853A.729.729,0,0,0,45.863,24.123Zm-24.074,0h-.875v-1.6a1.509,1.509,0,0,0-1.508-1.508h-8.56a.729.729,0,0,0-.73.73V38.13H5.4a.828.828,0,0,1-.827-.827V5.4A.828.828,0,0,1,5.4,4.572H20.962a.828.828,0,0,1,.827.827V24.123Zm21.789,0H23.248V22.47h20.33v1.654Z" fill="url(#a)"/><g transform="translate(24.512 27.236)"><path d="M273.2,299.29a3.842,3.842,0,1,0,3.842,3.842A3.847,3.847,0,0,0,273.2,299.29Zm0,6.225a2.383,2.383,0,1,1,2.383-2.383A2.386,2.386,0,0,1,273.2,305.515Z" transform="translate(-269.361 -299.29)" fill="url(#a)"/></g><g transform="translate(23.734 35.017)"><path d="M267.765,384.8H263.1a2.288,2.288,0,0,0-2.286,2.286v6.225a.729.729,0,0,0,.73.73h7.782a.729.729,0,0,0,.73-.73v-6.225A2.288,2.288,0,0,0,267.765,384.8Zm.827,7.782h-6.323v-5.5a.828.828,0,0,1,.827-.827h4.669a.828.828,0,0,1,.827.827v5.5Z" transform="translate(-260.81 -384.802)" fill="url(#a)"/></g></svg>