<svg xmlns="http://www.w3.org/2000/svg" viewBox="0 0 20.7 20.7"><defs><style>.a,.b{fill:#fff;}.a{opacity:0;}</style></defs><rect class="a" width="20.7" height="20.7"/><path class="b" d="M14.5,3.61h-.767V2.8a.768.768,0,1,0-1.533,0v.8H7.6V2.8a.768.768,0,1,0-1.533,0v.8H5.3A2.36,2.36,0,0,0,3,6.025v9.66A2.36,2.36,0,0,0,5.3,18.1h9.2a2.36,2.36,0,0,0,2.3-2.415V6.025A2.36,2.36,0,0,0,14.5,3.61ZM6.833,14.075a.806.806,0,1,1,.767-.8A.787.787,0,0,1,6.833,14.075Zm6.133,0H9.9a.806.806,0,0,1,0-1.61h3.067a.806.806,0,0,1,0,1.61Zm2.3-4.83H4.533V6.025a.787.787,0,0,1,.767-.8h.767v.8a.768.768,0,1,0,1.533,0v-.8h4.6v.8a.768.768,0,1,0,1.533,0v-.8H14.5a.787.787,0,0,1,.767.8Z" transform="translate(0.45 0.3)"/></svg>