<svg xmlns="http://www.w3.org/2000/svg" xmlns:xlink="http://www.w3.org/1999/xlink" width="52" height="52" viewBox="0 0 52 52">
  <defs>
    <linearGradient id="linear-gradient" x1="0.5" x2="0.5" y2="1" gradientUnits="objectBoundingBox">
      <stop offset="0" stop-color="#ff9e80"/>
      <stop offset="1" stop-color="#ffe88d"/>
    </linearGradient>
  </defs>
  <g id="cash-point" transform="translate(0 0)">
    <path id="Path_305" data-name="Path 305" d="M51.238,38.848H49.207V34.481h.508a2.285,2.285,0,0,0,0-4.57H39.9V27.473h.7a.762.762,0,0,0,0-1.523h-.7V18.526a2.285,2.285,0,1,0-4.57,0V25.95H28.793a.661.661,0,0,1-.66-.66V13.509a.661.661,0,0,1,.66-.66H46.058a.661.661,0,0,1,.66.66V25.29a.661.661,0,0,1-.66.66H43.875a.762.762,0,1,0,0,1.523h2.184a2.186,2.186,0,0,0,2.184-2.184V13.509a2.186,2.186,0,0,0-2.184-2.184H39.911V9.287h4.3a1.169,1.169,0,0,0,1.168-1.168V3.854a1.169,1.169,0,0,0-1.168-1.168h-13.2a1.169,1.169,0,0,0-1.168,1.168V8.119a1.169,1.169,0,0,0,1.168,1.168h4.3v2.038H28.793a2.186,2.186,0,0,0-2.184,2.184V25.29a2.186,2.186,0,0,0,2.184,2.184h6.536v2.438H23.812V25.718a8.675,8.675,0,0,0-5.344-8,6.77,6.77,0,0,0,3.2-4.088h.036a3.288,3.288,0,0,0,3.152-3.4,3.389,3.389,0,0,0-2.342-3.287,7.691,7.691,0,0,0-.086-.929A6.306,6.306,0,0,0,22.01,3.8,4.3,4.3,0,0,0,18.363.989a.48.48,0,0,1-.248-.115c-.7-.6-2.2-1.2-5.391-.67A5.411,5.411,0,0,0,8.551,3.447a9.43,9.43,0,0,0-.751,3.5,3.389,3.389,0,0,0-2.341,3.286,3.288,3.288,0,0,0,3.152,3.4h.036a6.768,6.768,0,0,0,3.2,4.088,8.676,8.676,0,0,0-5.344,8v4.193H2.285a2.285,2.285,0,0,0,0,4.57h.508v.457a.762.762,0,1,0,1.523,0v-.457H47.683v4.367H4.316v-.677a.762.762,0,1,0-1.523,0v.677H.761A.761.761,0,0,0,0,39.61v3.047a.762.762,0,0,0,.762.762H2.793v7.82A.762.762,0,0,0,3.554,52h38.7a.762.762,0,1,0,0-1.523H4.316V43.418H47.683v7.059H45.466a.762.762,0,1,0,0,1.523h2.979a.762.762,0,0,0,.762-.762v-7.82h2.031A.761.761,0,0,0,52,42.657V39.61a.762.762,0,0,0-.762-.762ZM31.368,4.209H43.86V7.764H31.368ZM36.84,9.287h1.548v2.038H36.84Zm.012,9.239a.762.762,0,1,1,1.523,0V26.7s0,.005,0,.008,0,.005,0,.008v3.131H36.852Zm-18.366.887a5.224,5.224,0,0,1-6.657,0,7.1,7.1,0,0,1,6.657,0Zm4.847-9.182A1.808,1.808,0,0,1,21.905,12.1c.012-.335,0-.057.006-2.345A2.638,2.638,0,0,0,22.4,8.535a1.925,1.925,0,0,1,.935,1.7ZM12.973,1.706c2.933-.485,3.92.126,4.152.325A2,2,0,0,0,18.17,2.5,2.783,2.783,0,0,1,20.577,4.32a5.333,5.333,0,0,1,.34,1.9A5.61,5.61,0,0,1,20.778,8.7a4.344,4.344,0,0,1-.91-2.272,1.9,1.9,0,0,0-.819-1.25,4.53,4.53,0,0,1-1.062-.952,1.547,1.547,0,0,0-1.223-.6,1.585,1.585,0,0,0-.935.308A9.755,9.755,0,0,1,11.96,5.213a1.909,1.909,0,0,0-1.565,1.5A3.974,3.974,0,0,1,9.539,8.7a4.081,4.081,0,0,1-.211-1.121v0c0-.012,0-.024,0-.036-.136-2.621.891-5.379,3.647-5.835ZM6.982,10.232a1.924,1.924,0,0,1,.936-1.7A2.67,2.67,0,0,0,8.4,9.75c0,2.289-.006,2.011.006,2.346A1.808,1.808,0,0,1,6.982,10.232Zm2.945,1.613V10.2a1.446,1.446,0,0,0,.484-.245,4.827,4.827,0,0,0,1.477-2.943.379.379,0,0,1,.311-.3A11.29,11.29,0,0,0,16.728,5.17c.019-.014.047-.019.06,0A6.041,6.041,0,0,0,18.2,6.447a.369.369,0,0,1,.163.24A5.367,5.367,0,0,0,19.9,9.956a1.45,1.45,0,0,0,.485.245v1.644a5.224,5.224,0,0,1-5.219,5.218h-.024a5.224,5.224,0,0,1-5.219-5.218Zm-1.9,13.873a7.116,7.116,0,0,1,2.5-5.42,6.743,6.743,0,0,0,4.627,1.836h0A6.744,6.744,0,0,0,19.785,20.3a7.118,7.118,0,0,1,2.5,5.42v4.193H8.027Zm-5.742,7.24a.762.762,0,0,1,0-1.523h47.43a.762.762,0,0,1,0,1.523Zm48.191,8.937H1.523V40.372H50.476Zm0,0" transform="translate(0 0)" fill="url(#linear-gradient)"/>
    <path id="Path_306" data-name="Path 306" d="M157.66,234h-5.047a1.113,1.113,0,0,0,0,2.227h5.047a1.113,1.113,0,0,0,0-2.227Zm0,0" transform="translate(-136.865 -210.569)" fill="url(#linear-gradient)"/>
  </g>
</svg>
