<svg xmlns="http://www.w3.org/2000/svg" viewBox="0 0 24.172 24.172"><defs><style>.a{fill:#b0f0c1;}</style></defs><g transform="translate(-0.001 0)"><path class="a" d="M20.143,4.268V2.014A2.017,2.017,0,0,0,18.129,0H2.014A2.017,2.017,0,0,0,0,2.014v8.863a2.01,2.01,0,0,0,1.806,1.994L3.321,16.8a2.015,2.015,0,0,0,2.6,1.156l9.457-3.643a5.824,5.824,0,0,0,.5,5.171l.231.37v3.913a.4.4,0,0,0,.4.4h7.252a.4.4,0,0,0,.4-.4v-13.3a5.272,5.272,0,0,0-1.543-3.713Zm0,2.409,1.223,3.174a1.209,1.209,0,0,1-.694,1.562l-.7.27a2.015,2.015,0,0,0,.17-.806ZM.806,10.877V2.014A1.209,1.209,0,0,1,2.014.806H18.129a1.209,1.209,0,0,1,1.209,1.209V4.575h0l0,.009v6.293a1.226,1.226,0,0,1-.027.209L15.62,7.4a2.149,2.149,0,0,0-3.1,2.972l1.573,1.718H2.014A1.209,1.209,0,0,1,.806,10.877Zm5.161,2.014L3.1,13.995l-.424-1.1Zm-.332,4.314a1.209,1.209,0,0,1-1.562-.693l-.68-1.767L8.2,12.892v0h6.627l.524.571Zm17.731,6.161H16.92V20.143h6.446Zm0-4.029H16.741l-.175-.279a5.024,5.024,0,0,1-.1-5.159.4.4,0,0,0-.053-.472l-3.3-3.6a1.344,1.344,0,0,1,1.94-1.858l6.42,6.418.57-.57-1.491-1.491.413-.161a2.015,2.015,0,0,0,1.155-2.6L20.754,6.02l1.305,1.308a4.461,4.461,0,0,1,1.307,3.143Zm0,0"/><path class="a" d="M65.817,66.982a1.165,1.165,0,0,0,1.165-1.165V63.665A1.165,1.165,0,0,0,65.817,62.5H63.665A1.165,1.165,0,0,0,62.5,63.665v2.151a1.165,1.165,0,0,0,1.165,1.165ZM63.4,65.817v-.627h.9v-.9h-.9v-.627a.269.269,0,0,1,.269-.269h2.151a.269.269,0,0,1,.269.269v.627h-.9v.9h.9v.627a.269.269,0,0,1-.269.269H63.665A.269.269,0,0,1,63.4,65.817Zm0,0" transform="translate(-60.707 -60.707)"/><path class="a" d="M78.125,265.625h1.793v.9H78.125Zm0,0" transform="translate(-75.884 -258.803)"/><path class="a" d="M78.125,359.375h1.793v.9H78.125Zm0,0" transform="translate(-75.884 -350.145)"/><path class="a" d="M359.375,359.375h1.793v.9h-1.793Zm0,0" transform="translate(-350.184 -350.145)"/><path class="a" d="M171.875,265.625h1.793v.9h-1.793Zm0,0" transform="translate(-167.479 -258.803)"/><path class="a" d="M265.625,265.625h1.793v.9h-1.793Zm0,0" transform="translate(-258.831 -258.803)"/><path class="a" d="M359.375,265.625h1.793v.9h-1.793Zm0,0" transform="translate(-350.184 -258.803)"/><path class="a" d="M656.25,78.125h.9V79.47h-.9Zm0,0" transform="translate(-639.396 -75.884)"/><path class="a" d="M593.75,78.125h.9V79.47h-.9Zm0,0" transform="translate(-578.501 -75.884)"/><path class="a" d="M531.25,78.125h.9V79.47h-.9Zm0,0" transform="translate(-517.606 -75.884)"/><path class="a" d="M468.75,78.125h.9V79.47h-.9Zm0,0" transform="translate(-456.711 -75.884)"/><path class="a" d="M687.5,812.5h.9v.9h-.9Zm0,0" transform="translate(-669.843 -791.914)"/></g></svg>