<svg xmlns="http://www.w3.org/2000/svg" xmlns:xlink="http://www.w3.org/1999/xlink" viewBox="0 0 35 35"><defs><style>.a{fill:rgba(255,255,255,0.19);}.b{clip-path:url(#a);}.c,.d{fill:#fff;}.c{opacity:0;}</style><clipPath id="a"><rect class="a" width="35" height="35" rx="8" transform="translate(23 436)"/></clipPath></defs><g class="b" transform="translate(-23 -436)"><g transform="translate(23 436)"><rect class="c" width="35" height="35" transform="translate(35 35) rotate(180)"/><path class="d" d="M6.767,22.269V29.3a1.342,1.342,0,0,0,1.342,1.327h8.2V22.269Z"/><path class="d" d="M18.7,30.625h8.2A1.342,1.342,0,0,0,28.233,29.3V22.269H18.7Z"/><path class="d" d="M29.313,10.34H26.629a4.112,4.112,0,0,0,.423-1.794,4.185,4.185,0,0,0-4.185-4.171A6.14,6.14,0,0,0,17.5,8.123a6.14,6.14,0,0,0-5.367-3.748A4.185,4.185,0,0,0,7.948,8.546a4.112,4.112,0,0,0,.423,1.794H5.688c-.729,0-1.313.86-1.313,1.91v5.731c0,1.05.583,1.91,1.313,1.91H16.3V10.34H18.7v9.552H29.313c.729,0,1.312-.86,1.312-1.91V12.25C30.625,11.2,30.042,10.34,29.313,10.34Zm-17.179,0a1.794,1.794,0,1,1,0-3.573c2.042,0,3.194,2.1,3.762,3.573Zm10.733,0H19.1c.569-1.458,1.721-3.573,3.762-3.573a1.794,1.794,0,1,1,0,3.573Z"/></g></g></svg>