<svg xmlns="http://www.w3.org/2000/svg" width="47.934" height="47.934" viewBox="0 0 47.934 47.934"><g transform="translate(0 0)"><path d="M39.945,8.463V3.994A4,4,0,0,0,35.95,0H3.994A4,4,0,0,0,0,3.994V21.57a3.987,3.987,0,0,0,3.582,3.953l3,7.8a4,4,0,0,0,5.163,2.291L30.5,28.386A11.549,11.549,0,0,0,31.5,38.64l.459.734v7.76a.8.8,0,0,0,.8.8h14.38a.8.8,0,0,0,.8-.8V20.764A10.455,10.455,0,0,0,44.873,13.4Zm0,4.778,2.425,6.294a2.4,2.4,0,0,1-1.376,3.1l-1.386.535a4,4,0,0,0,.337-1.6ZM1.6,21.57V3.994a2.4,2.4,0,0,1,2.4-2.4H35.95a2.4,2.4,0,0,1,2.4,2.4V9.072H38.34l.007.018V21.57a2.43,2.43,0,0,1-.054.414l-7.318-7.319a4.262,4.262,0,0,0-6.152,5.894l3.12,3.408H3.994A2.4,2.4,0,0,1,1.6,21.57Zm10.235,3.994L6.152,27.752l-.84-2.187Zm-.658,8.554a2.4,2.4,0,0,1-3.1-1.375l-1.348-3.5,9.536-3.675v0H29.407l1.038,1.132ZM46.336,46.336H33.554V39.945H46.336Zm0-7.989H33.2l-.347-.554a9.962,9.962,0,0,1-.2-10.231.8.8,0,0,0-.1-.936L26,19.483A2.664,2.664,0,0,1,29.845,15.8L42.575,28.526l1.13-1.13-2.956-2.956.82-.32a4,4,0,0,0,2.29-5.161l-2.7-7.021,2.588,2.593a8.847,8.847,0,0,1,2.593,6.232Zm0,0" fill="#63b4ff"/><path d="M68.412,70.489a2.077,2.077,0,0,0,2.077-2.077V64.577A2.077,2.077,0,0,0,68.412,62.5H64.577A2.077,2.077,0,0,0,62.5,64.577v3.835a2.077,2.077,0,0,0,2.077,2.077ZM64.1,68.412V67.293h1.6V65.7H64.1V64.577a.479.479,0,0,1,.479-.479h3.835a.479.479,0,0,1,.479.479V65.7h-1.6v1.6h1.6v1.118a.479.479,0,0,1-.479.479H64.577A.479.479,0,0,1,64.1,68.412Zm0,0" transform="translate(-59.304 -59.304)" fill="#63b4ff"/><path d="M78.125,265.625h3.2v1.6h-3.2Zm0,0" transform="translate(-74.131 -252.044)" fill="#63b4ff"/><path d="M78.125,359.375h3.2v1.6h-3.2Zm0,0" transform="translate(-74.131 -341)" fill="#63b4ff"/><path d="M359.375,359.375h3.2v1.6h-3.2Zm0,0" transform="translate(-341 -341)" fill="#63b4ff"/><path d="M171.875,265.625h3.2v1.6h-3.2Zm0,0" transform="translate(-163.087 -252.044)" fill="#63b4ff"/><path d="M265.625,265.625h3.2v1.6h-3.2Zm0,0" transform="translate(-252.044 -252.044)" fill="#63b4ff"/><path d="M359.375,265.625h3.2v1.6h-3.2Zm0,0" transform="translate(-341 -252.044)" fill="#63b4ff"/><path d="M656.25,78.125h1.6v2.4h-1.6Zm0,0" transform="translate(-622.696 -74.131)" fill="#63b4ff"/><path d="M593.75,78.125h1.6v2.4h-1.6Zm0,0" transform="translate(-563.392 -74.131)" fill="#63b4ff"/><path d="M531.25,78.125h1.6v2.4h-1.6Zm0,0" transform="translate(-504.088 -74.131)" fill="#63b4ff"/><path d="M468.75,78.125h1.6v2.4h-1.6Zm0,0" transform="translate(-444.783 -74.131)" fill="#63b4ff"/><path d="M687.5,812.5h1.6v1.6h-1.6Zm0,0" transform="translate(-652.349 -770.958)" fill="#63b4ff"/></g></svg>