<svg xmlns="http://www.w3.org/2000/svg" xmlns:xlink="http://www.w3.org/1999/xlink" viewBox="0 0 100 100">
  <defs>
    <style>
      .cls-1 {
        fill: url(#linear-gradient);
      }

      .cls-2 {
        fill: #f3764a;
      }

      .cls-3 {
        fill: #bbd2ff;
      }

      .cls-4 {
        fill: rgba(100,156,193,0.49);
      }
    </style>
    <linearGradient id="linear-gradient" x1="0.093" x2="0.957" y2="1.117" gradientUnits="objectBoundingBox">
      <stop offset="0" stop-color="#4b6cb7"/>
      <stop offset="1" stop-color="#182848"/>
    </linearGradient>
  </defs>
  <g id="pigy-blue" transform="translate(-76 -65)">
    <circle id="Ellipse_87" data-name="Ellipse 87" class="cls-1" cx="50" cy="50" r="50" transform="translate(76 65)"/>
    <g id="piggy-bank" transform="translate(45.018 81)">
      <g id="Group_594" data-name="Group 594" transform="translate(55.982)">
        <path id="Path_417" data-name="Path 417" class="cls-2" d="M95.707,172.214l.331-.291a.627.627,0,0,0,.132-.132c.172-.2,4.034-4.656,5.5-8.082h.7A3.63,3.63,0,0,0,106,160.085v-5.727a3.63,3.63,0,0,0-3.624-3.624h-.78a20.478,20.478,0,0,0-5.978-8.267,5.485,5.485,0,0,1,.886-4.5,2.7,2.7,0,0,0-2.619-4.113,11.046,11.046,0,0,0-7.447,3.823,25.233,25.233,0,0,0-3.862-.754,1.312,1.312,0,0,0-.3,2.606,23.183,23.183,0,0,1,4.272.926,1.324,1.324,0,0,0,1.481-.516,8.31,8.31,0,0,1,6.177-3.465.079.079,0,0,1,.079.04.058.058,0,0,1,0,.079,8.117,8.117,0,0,0-1.177,6.627,1.288,1.288,0,0,0,.489.979,17.767,17.767,0,0,1,5.846,8.267,1.306,1.306,0,0,0,1.243.9h1.693a1,1,0,0,1,1.005,1.005V160.1a1,1,0,0,1-1.005,1.005h-1.6a1.318,1.318,0,0,0-1.257.926c-.741,2.42-3.994,6.521-5.264,7.989l-.291.251a8.8,8.8,0,0,0-3.016,6.243v1.839H83.393v-1.772a1.324,1.324,0,0,0-.436-.979,1.309,1.309,0,0,0-1.018-.331,24.588,24.588,0,0,1-5.754-.079,1.281,1.281,0,0,0-1.032.317,1.3,1.3,0,0,0-.45.992v1.839H67.15v-.569a12.1,12.1,0,0,0-3.254-7.738,19.256,19.256,0,0,1-3.465-5.251c-.013-.013-.013-.026-.026-.053a15.592,15.592,0,0,1-1.349-3.611l-.013-.053c0-.013-.013-.026-.013-.04a13.5,13.5,0,0,1-.423-3.6v-.04a17.339,17.339,0,0,1,.212-2.619,1.308,1.308,0,0,0-2.579-.436,17.775,17.775,0,0,0-.251,3.029,15.876,15.876,0,0,0,.529,4.4h0a18.99,18.99,0,0,0,1.548,4.127,21.471,21.471,0,0,0,3.942,5.952,9.433,9.433,0,0,1,2.513,6v.542a.878.878,0,0,0,.013.172,2.579,2.579,0,0,0,2.553,2.394h7.658a2.568,2.568,0,0,0,2.566-2.566v-.436a27.3,27.3,0,0,0,3.452.053v.384a2.568,2.568,0,0,0,2.566,2.566h7.658a2.568,2.568,0,0,0,2.566-2.566v-1.865A6.351,6.351,0,0,1,95.707,172.214Z" transform="translate(-55.982 -116.133)"/>
        <path id="Path_418" data-name="Path 418" class="cls-3" d="M56.819,120.68A10.78,10.78,0,1,0,67.6,109.9,10.79,10.79,0,0,0,56.819,120.68Zm18.941,0a8.161,8.161,0,1,1-8.161-8.161A8.174,8.174,0,0,1,75.76,120.68Z" transform="translate(-56.708 -95.364)"/>
        <path id="Path_419" data-name="Path 419" class="cls-4" d="M189.645,7.513a7.513,7.513,0,1,0-7.513,7.513A7.525,7.525,0,0,0,189.645,7.513Zm-12.42,0a4.894,4.894,0,1,1,4.894,4.894A4.9,4.9,0,0,1,177.225,7.513Z" transform="translate(-158.927)"/>
      </g>
    </g>
  </g>
</svg>
