<svg xmlns="http://www.w3.org/2000/svg" xmlns:xlink="http://www.w3.org/1999/xlink" viewBox="0 0 73.654 73.654"><defs><style>.a{fill:#f3f3f3;}.b{clip-path:url(#a);}.c{fill:#50abff;}</style><clipPath id="a"><rect class="a" width="73.654" height="73.654" rx="10" transform="translate(993 405)"/></clipPath></defs><g class="b" transform="translate(-993 -405)"><g transform="translate(993 405)"><g transform="translate(42.965 7.672)"><path class="c" d="M55.442,7.708A12.276,12.276,0,1,0,67.718,19.984,12.276,12.276,0,0,0,55.442,7.708Zm0,21.483a9.207,9.207,0,1,1,9.207-9.207A9.207,9.207,0,0,1,55.442,29.191Z" transform="translate(-43.167 -7.708)"/></g><g transform="translate(49.553 15.794)"><path class="c" d="M58.992,15.868l-5.053,5.053-1.984-1.984-2.17,2.17,3.069,3.069a1.534,1.534,0,0,0,2.17,0l6.138-6.138Z" transform="translate(-49.785 -15.868)"/></g><g transform="translate(30.689 39.896)"><rect class="c" width="21.482" height="3.069"/></g><g transform="translate(6.138 18.414)"><path class="c" d="M33.787,18.5H16.908A10.754,10.754,0,0,0,6.167,29.241H9.236a7.681,7.681,0,0,1,7.672-7.672H33.787a3.069,3.069,0,0,1,0,6.138H16.908v3.069H33.787a6.138,6.138,0,0,0,0-12.276Z" transform="translate(-6.167 -18.5)"/></g><g transform="translate(0 24.551)"><path class="c" d="M1.535,24.667A1.534,1.534,0,0,0,0,26.2v1.535H7.672V24.667H1.535Z" transform="translate(0 -24.667)"/></g><g transform="translate(21.483 29.155)"><path class="c" d="M70.686,44.636V66.119a4.6,4.6,0,0,1-4.6,4.6H29.256a4.6,4.6,0,0,1-4.6-4.6V29.292H21.583V66.119a7.681,7.681,0,0,0,7.672,7.672H66.083a7.681,7.681,0,0,0,7.672-7.672V44.636Z" transform="translate(-21.583 -29.292)"/></g><g transform="translate(21.932)"><path class="c" d="M66.085,0H35.4a1.535,1.535,0,0,0-1.085.45L22.035,12.725l2.17,2.17L36.031,3.069H66.085a4.6,4.6,0,0,1,4.6,4.6V29.155h3.069V7.672A7.682,7.682,0,0,0,66.085,0Z" transform="translate(-22.035)"/></g><g transform="translate(21.483 0)"><path class="c" d="M36.479.45a1.534,1.534,0,0,0-2.17,0L22.033,12.725a1.534,1.534,0,0,0-.45,1.085v6.138h3.069v-5.5l9.207-9.207v5.5a1.535,1.535,0,0,1-1.535,1.535H29.256v3.069h3.069a4.6,4.6,0,0,0,4.6-4.6V1.535A1.534,1.534,0,0,0,36.479.45Z" transform="translate(-21.583 0)"/></g><g transform="translate(6.138 41.431)"><path class="c" d="M9.236,41.625H6.167A10.754,10.754,0,0,0,16.908,52.366V49.3A7.682,7.682,0,0,1,9.236,41.625Z" transform="translate(-6.167 -41.625)"/></g><g transform="translate(16.879 49.103)"><rect class="c" width="6.138" height="3.069"/></g><g transform="translate(0 42.965)"><path class="c" d="M0,43.167V44.7a1.535,1.535,0,0,0,1.535,1.534H7.672V43.167Z" transform="translate(0 -43.167)"/></g><g transform="translate(44.154 32.268)"><path class="c" d="M72.53,33.707a4.656,4.656,0,0,0-6.428,0L44.811,55a1.535,1.535,0,0,0,0,2.17l4.258,4.258a1.534,1.534,0,0,0,2.17,0L72.529,40.135l0,0A4.543,4.543,0,0,0,72.53,33.707Zm-2.17,4.258L50.154,58.171l-2.088-2.088L68.272,35.877a1.511,1.511,0,0,1,2.088,0h0A1.476,1.476,0,0,1,70.36,37.965Z" transform="translate(-44.362 -32.42)"/></g><g transform="translate(39.895 55.241)"><path class="c" d="M49.444,59.077l-4.395,2.2,2.2-4.4L44.5,55.5l-4.26,8.521a1.535,1.535,0,0,0,1.373,2.22,1.551,1.551,0,0,0,.686-.153l8.521-4.266Z" transform="translate(-40.083 -55.5)"/></g><g transform="translate(60.573 38.882)"><rect class="c" width="3.069" height="6.021" transform="translate(0 2.17) rotate(-44.992)"/></g><g transform="translate(30.689 62.913)"><rect class="c" width="10.741" height="3.069"/></g><g transform="translate(30.689 55.241)"><rect class="c" width="9.207" height="3.069"/></g><g transform="translate(30.689 47.568)"><rect class="c" width="13.81" height="3.069"/></g><g transform="translate(50.637 62.913)"><rect class="c" width="13.81" height="3.069"/></g><g transform="translate(58.31 55.241)"><rect class="c" width="6.138" height="3.069"/></g></g></g></svg>