<svg xmlns="http://www.w3.org/2000/svg" xmlns:xlink="http://www.w3.org/1999/xlink" viewBox="0 0 89.71 89.71"><defs><style>.a{fill:#f3f3f3;}.b{clip-path:url(#a);}.c{fill:#50abff;}</style><clipPath id="a"><rect class="a" width="89.71" height="89.71" rx="10" transform="translate(682 405)"/></clipPath></defs><g class="b" transform="translate(-682 -405)"><g transform="translate(682 405)"><path class="c" d="M57.432,39.628A2.628,2.628,0,1,1,54.8,37,2.628,2.628,0,0,1,57.432,39.628Zm0,0" transform="translate(11.077 7.855)"/><path class="c" d="M38.841,21.026A10.513,10.513,0,1,0,28.328,10.513,10.524,10.524,0,0,0,38.841,21.026Zm0-15.769a5.256,5.256,0,1,1-5.256,5.256A5.262,5.262,0,0,1,38.841,5.256Zm0,0" transform="translate(6.014)"/><path class="c" d="M87.082,38.514H81.126a28.751,28.751,0,0,0-4.84-6.816l2.661-10.961a2.628,2.628,0,0,0-2.554-3.248H68.509A13.147,13.147,0,0,0,58.018,22.78L39.6,22.745a28.962,28.962,0,0,0-27.782,20.9,5.518,5.518,0,0,1-4.2-.808,5.228,5.228,0,0,1-2.359-4.328V35.886a2.628,2.628,0,0,0-5.256,0v2.628a10.475,10.475,0,0,0,4.688,8.694,10.647,10.647,0,0,0,5.963,1.825c.053,0,.105,0,.157,0-.078.865-.12,1.741-.12,2.626A28.844,28.844,0,0,0,21.2,73.958v9.411A2.628,2.628,0,0,0,23.829,86H36.97A2.628,2.628,0,0,0,39.6,83.369v-2.8H55.368v2.8A2.628,2.628,0,0,0,58,86H71.137a2.628,2.628,0,0,0,2.628-2.628V74l1.035-.94a28.769,28.769,0,0,0,6.756-9.144l7.018-4.842a2.629,2.629,0,0,0,1.135-2.163V41.142a2.628,2.628,0,0,0-2.628-2.628ZM84.453,55.532,77.971,60a2.624,2.624,0,0,0-.916,1.111,23.879,23.879,0,0,1-5.789,8.054l-1.9,1.722a2.629,2.629,0,0,0-.861,1.946v7.9H60.624v-2.8A2.628,2.628,0,0,0,58,75.309H36.97a2.628,2.628,0,0,0-2.628,2.628v2.8H26.457V72.683a2.627,2.627,0,0,0-1.05-2.1A23.679,23.679,0,0,1,39.6,27.966L59.432,28a2.628,2.628,0,0,0,2.283-1.325,7.834,7.834,0,0,1,6.794-3.931h4.542l-2.21,9.1a2.626,2.626,0,0,0,.732,2.576h0l0,0h0l0,0a23.569,23.569,0,0,1,5.474,7.764l.021.047a.01.01,0,0,1,0,0,2.659,2.659,0,0,0,1.723,1.44c.377.113.325.05,5.653.05Zm0,0" transform="translate(0 3.713)"/><path class="c" d="M46.726,30.5H30.956a2.628,2.628,0,1,0,0,5.256H46.726a2.628,2.628,0,0,0,0-5.256Zm0,0" transform="translate(6.014 6.474)"/></g></g></svg>