<svg xmlns="http://www.w3.org/2000/svg" xmlns:xlink="http://www.w3.org/1999/xlink" viewBox="0 0 83.309 83.309"><defs><style>.a{fill:#f3f3f3;}.b{clip-path:url(#a);}.c{fill:#50abff;}</style><clipPath id="a"><rect class="a" width="83.309" height="83.309" transform="translate(371 405)"/></clipPath></defs><g class="b" transform="translate(-371 -405)"><g transform="translate(371 405)"><g transform="translate(0 41.654)"><path class="c" d="M40.266,45.331H29.774a5.5,5.5,0,0,0,.772-2.777,5.531,5.531,0,0,0-9.719-3.635,5.525,5.525,0,0,0-8.947,6.412H1.388A1.389,1.389,0,0,0,0,46.719V77.266a1.389,1.389,0,0,0,1.388,1.388H40.266a1.389,1.389,0,0,0,1.388-1.388V46.719A1.389,1.389,0,0,0,40.266,45.331Zm-23.6,30.546H2.777V56.439H16.662Zm0-22.216H2.777V48.108H16.662Zm0-8.331a2.777,2.777,0,1,1,2.777-2.777v2.777H16.662Zm5.554,30.546H19.439V56.439h2.777Zm0-22.216H19.439V48.108h2.777Zm0-8.331V42.554a2.777,2.777,0,1,1,2.777,2.777H22.216ZM38.877,75.877H24.993V56.439H38.877Zm0-22.216H24.993V48.108H38.877Z" transform="translate(0 -37)"/></g><g transform="translate(13.885)"><path class="c" d="M80.369,0H13.722a1.389,1.389,0,0,0-1.388,1.388v36.1a1.389,1.389,0,0,0,1.388,1.388H80.369a1.389,1.389,0,0,0,1.388-1.388V1.388A1.389,1.389,0,0,0,80.369,0ZM78.98,36.1H15.11V2.777H78.98Z" transform="translate(-12.333)"/></g><g transform="translate(19.439 5.554)"><path class="c" d="M75.581,11.876a1.389,1.389,0,0,0-1.388-1.388,4.169,4.169,0,0,1-4.164-4.165A1.389,1.389,0,0,0,68.64,4.933H24.209a1.389,1.389,0,0,0-1.388,1.388,4.171,4.171,0,0,1-4.165,4.165,1.389,1.389,0,0,0-1.388,1.388V25.76a1.389,1.389,0,0,0,1.388,1.388,4.171,4.171,0,0,1,4.165,4.165A1.389,1.389,0,0,0,24.209,32.7H68.64a1.389,1.389,0,0,0,1.388-1.388,4.171,4.171,0,0,1,4.165-4.165,1.389,1.389,0,0,0,1.388-1.388ZM72.806,24.511a6.962,6.962,0,0,0-5.414,5.414H25.459a6.962,6.962,0,0,0-5.414-5.414V13.124h0A6.962,6.962,0,0,0,25.457,7.71H67.391a6.966,6.966,0,0,0,5.415,5.414Z" transform="translate(-17.267 -4.933)"/></g><g transform="translate(40.266 11.108)"><path class="c" d="M44.1,9.867A8.331,8.331,0,1,0,52.428,18.2,8.339,8.339,0,0,0,44.1,9.867Zm0,13.885A5.554,5.554,0,1,1,49.651,18.2,5.559,5.559,0,0,1,44.1,23.751Z" transform="translate(-35.767 -9.867)"/></g><g transform="translate(8.331 16.662)"><rect class="c" width="2.777" height="2.777"/></g><g transform="translate(2.777 16.662)"><rect class="c" width="2.777" height="2.777"/></g><g transform="translate(2.777 22.216)"><rect class="c" width="2.777" height="2.777"/></g><g transform="translate(2.777 27.77)"><rect class="c" width="2.777" height="2.777"/></g><g transform="translate(2.777 33.323)"><rect class="c" width="2.777" height="2.777"/></g><g transform="translate(2.777 38.877)"><rect class="c" width="2.777" height="2.777"/></g><g transform="translate(2.777 44.431)"><rect class="c" width="2.777" height="2.777"/></g><g transform="translate(77.755 47.208)"><rect class="c" width="2.777" height="2.777"/></g><g transform="translate(77.755 41.654)"><rect class="c" width="2.777" height="2.777"/></g><g transform="translate(77.755 52.762)"><rect class="c" width="2.777" height="2.777"/></g><g transform="translate(77.755 58.316)"><rect class="c" width="2.777" height="2.777"/></g><g transform="translate(77.755 63.87)"><rect class="c" width="2.777" height="2.777"/></g><g transform="translate(77.755 69.424)"><rect class="c" width="2.777" height="2.777"/></g><g transform="translate(72.201 69.424)"><rect class="c" width="2.777" height="2.777"/></g><g transform="translate(66.647 69.424)"><rect class="c" width="2.777" height="2.777"/></g><g transform="translate(61.093 69.424)"><rect class="c" width="2.777" height="2.777"/></g><g transform="translate(55.539 69.424)"><rect class="c" width="2.777" height="2.777"/></g><g transform="translate(49.985 69.424)"><rect class="c" width="2.777" height="2.777"/></g><g transform="translate(44.431 69.424)"><rect class="c" width="2.777" height="2.777"/></g><g transform="translate(29.158 18.05)"><rect class="c" width="2.777" height="2.777"/></g><g transform="translate(65.258 18.05)"><rect class="c" width="2.777" height="2.777"/></g><g transform="translate(27.77 63.87)"><rect class="c" width="2.777" height="2.777"/></g><g transform="translate(33.323 63.87)"><rect class="c" width="2.777" height="2.777"/></g><g transform="translate(27.77 69.424)"><rect class="c" width="2.777" height="2.777"/></g><g transform="translate(33.323 69.424)"><rect class="c" width="2.777" height="2.777"/></g><g transform="translate(27.77 74.978)"><rect class="c" width="2.777" height="2.777"/></g><g transform="translate(33.323 74.978)"><rect class="c" width="2.777" height="2.777"/></g><g transform="translate(5.554 63.87)"><rect class="c" width="2.777" height="2.777"/></g><g transform="translate(11.108 63.87)"><rect class="c" width="2.777" height="2.777"/></g><g transform="translate(5.554 69.424)"><rect class="c" width="2.777" height="2.777"/></g><g transform="translate(11.108 69.424)"><rect class="c" width="2.777" height="2.777"/></g><g transform="translate(5.554 74.978)"><rect class="c" width="2.777" height="2.777"/></g><g transform="translate(11.108 74.978)"><rect class="c" width="2.777" height="2.777"/></g></g></g></svg>