<svg xmlns="http://www.w3.org/2000/svg" xmlns:xlink="http://www.w3.org/1999/xlink" viewBox="0 0 212 212"><defs><style>.a{fill:#f1f1f1;}.b,.c,.d,.x{fill:none;}.b{stroke:rgba(245,245,245,0.85);}.b,.c,.d{stroke-width:0.6px;}.c{stroke:rgba(245,245,245,0.65);}.d{stroke:rgba(245,245,245,0.55);}.e{clip-path:url(#a);}.f{fill:#b0bec5;}.g,.r,.s,.t{opacity:0.5;}.h{fill:url(#b);}.i{fill:#fff;}.j{fill:#6c63ff;opacity:0.04;}.k{opacity:0.7;}.l{fill:url(#c);}.m{fill:#3ad29f;}.n{fill:#fda57d;}.o{opacity:0.05;}.p{fill:#585858;}.q{fill:#3d213c;}.r{fill:#4d8af0;}.s{fill:#f55f44;}.t,.u{fill:#47e6b1;}.v{fill:#ff8787;}.w{stroke:none;}</style><clipPath id="a"><rect class="a" width="94" height="94" transform="translate(1117 189)"/></clipPath><linearGradient id="b" x1="0.5" y1="1" x2="0.5" gradientUnits="objectBoundingBox"><stop offset="0" stop-color="gray" stop-opacity="0.251"/><stop offset="0.54" stop-color="gray" stop-opacity="0.122"/><stop offset="1" stop-color="gray" stop-opacity="0.102"/></linearGradient><linearGradient id="c" x1="0" y1="0.5" x2="1" y2="0.5" xlink:href="#b"/></defs><g transform="translate(-1065 -136)"><g class="b" transform="translate(1103 174)"><circle class="w" cx="68" cy="68" r="68"/><circle class="x" cx="68" cy="68" r="67.7"/></g><g class="c" transform="translate(1085 156)"><circle class="w" cx="86" cy="86" r="86"/><circle class="x" cx="86" cy="86" r="85.7"/></g><g class="d" transform="translate(1065 136)"><circle class="w" cx="106" cy="106" r="106"/><circle class="x" cx="106" cy="106" r="105.7"/></g><g class="e" transform="translate(7 6)"><g transform="translate(1117 196.658)"><rect class="f" width="8" height="1" transform="translate(16 57.342)"/><rect class="f" width="8" height="1" transform="translate(19 66.342)"/><rect class="f" width="4" height="1" transform="translate(25 71.342)"/><rect class="f" width="4" transform="translate(27 76.342)"/><g class="g" transform="translate(16.734 0.005)"><path class="h" d="M70.192,11.505l-30,18s-.326,39.005,30,60c30.326-20.995,30-60,30-60Z" transform="translate(-39.926 -11.169)"/></g><path class="i" d="M70.31,12.658l-29,18s-.421,37.635,29,58c29.421-20.369,29-58,29-58Z" transform="translate(-23.31 -11.316)"/><path class="j" d="M74.112,12.658h0v75c.167.118-.169.883,0,1,29.42-20.368,30-58,30-58Z" transform="translate(-27.112 -11.316)"/><g class="k" transform="translate(37.626 33.026)"><path class="l" d="M44.917,42.658l5,5,7-10,3,2-10,12-7-9Z" transform="translate(-42.543 -37.342)"/></g><path class="m" d="M46.145,42.644l5,4,6-9,2,1-8,12-7-7Z" transform="translate(-5.145 -4.302)"/><path class="n" d="M48.757,74.8s-5.527-.054-4,3c.969,1.987,2.426,3.865,3,6h2s-1.061-5.413-2-6h3Z" transform="translate(-23.757 -18.46)"/><path class="o" d="M48.1,77.8h3l-2-3h0l2,3h-3c.94.587,2,6,2,6h0S49.036,78.389,48.1,77.8Z" transform="translate(-24.097 -18.46)"/><path class="p" d="M48.739,83.893a7.28,7.28,0,0,1-4,1s-.781.544,1,1,4.774.352,5,0-.474-1.512-1-2A.7.7,0,0,0,48.739,83.893Z" transform="translate(-23.739 -19.551)"/><path class="n" d="M53.846,82.639a12.774,12.774,0,0,0,1,4l1,8h2s-.881-3.945,0-6,0-5,0-5v-2Z" transform="translate(-24.846 -19.297)"/><circle class="n" cx="2.5" cy="2.5" r="2.5" transform="translate(28 36.342)"/><rect class="n" width="3" height="3" transform="translate(29 39.342)"/><path class="p" d="M56.571,95.178a7.57,7.57,0,0,1-4,0s-1.644.177,0,1,4.707,1.295,5,1a2,2,0,0,0,0-2C57.16,94.591,56.571,95.178,56.571,95.178Z" transform="translate(-24.571 -20.836)"/><path class="n" d="M47.519,64.663l-3,9s-2.352.707-1,2c0,0-.88-1.352,1-1,0,0,1,.707,1,1a4.89,4.89,0,0,0,0-2,14.629,14.629,0,0,1,3-5,10.7,10.7,0,0,0,1-4Z" transform="translate(-23.519 -17.321)"/><path class="n" d="M61.679,60.938a9.721,9.721,0,0,0,3,0,4.564,4.564,0,0,0,2-2c.169-.35-.386-.953,0-1,.7-.084,2.271.225,2,1-.411,1.175-2,1-2,1l-2,3h-3Z" transform="translate(-25.679 -16.596)"/><circle class="q" cx="2.5" cy="2.5" r="2.5" transform="translate(28 35.342)"/><ellipse class="q" cx="1.5" cy="1" rx="1.5" ry="1" transform="translate(30 35.342)"/><path class="o" d="M32.843,72.628h0l4-1h0Z" transform="translate(-3.843 -8.286)"/><path class="o" d="M27.167,63.648h0l1,3h1Z" transform="translate(-3.167 -7.306)"/><path class="o" d="M41.831,50.135h0v2h0Z" transform="translate(-4.831 -5.793)"/><path class="o" d="M27.161,53.536h0l2,2v-1Z" transform="translate(-3.161 -6.194)"/><path class="o" d="M51.446,72.634h-1s6.091,3.459,8,1v-1S56.982,75.254,51.446,72.634Z" transform="translate(-24.446 -18.292)"/><path class="r" d="M41.186,17.091c-.184-.084-.059-.807,0-1,0-.015,0,.015,0,0h0c.006-.089.083.031,0,0a3.289,3.289,0,0,0-1,0h0c-.009.012.006-.014,0,0-.081.187.195.059,0,0-.014,0,.015,0,0,0h0c-.089-.008.033.917,0,1s-.07-.055,0,0h0c.012.009-.014-.006,0,0,.187.081.059-.195,0,0,0,.015,0-.015,0,0h0a3.752,3.752,0,0,0,0,1c.083.031-.053.071,0,0h0c.009-.012-.006-.986,0-1,.081-.187.805-.059,1,0,.015,0-.015,0,0,0h0c.089.006-.031.083,0,0s.071.053,0,0h0C41.175,17.084,41.2,17.1,41.186,17.091Z" transform="translate(-23.186 -11.749)"/><path class="r" d="M23.1,56.724c-.186-.082-.059.195,0,0,0-.015,0,.015,0,0h0c.006-.089.083.031,0,0s.053-.071,0,0h0c-.009.012.006-.014,0,0-.081.187-.805.059-1,0-.014,0,.015,0,0,0h0c-.088-.006.032-.082,0,0s-.069-.054,0,0h0c.012.009-.014-.006,0,0,.184.083.06.807,0,1,0,.015,0-.015,0,0h0c-.006.089-.083-.031,0,0s-.053.071,0,0h0c.009-.012-.006.014,0,0,.081-.187.805-.059,1,0,.015,0-.015,0,0,0h0c.089.006-.031.083,0,0a3.289,3.289,0,0,0,0-1h0C23.1,56.717,23.115,56.729,23.1,56.724Z" transform="translate(-21.105 -16.382)"/><circle class="s" cx="0.5" cy="0.5" r="0.5" transform="translate(81 27.342)"/><circle class="s" cx="0.5" cy="0.5" r="0.5" transform="translate(13 74.342)"/><circle class="s" cx="0.5" cy="0.5" r="0.5" transform="translate(92 52.342)"/><path class="r" d="M107.87,20.5c-.186-.082-.059.195,0,0,0-.015,0,.015,0,0h0a6.432,6.432,0,0,0-1-1c-.083-.031.053-.071,0,0h0c-.009.012.006-.014,0,0-.081.187.195,1.059,0,1-.014,0,.015,0,0,0h0c-.088-.006.032-.082,0,0s-.069-.054,0,0h0c.012.009-.014-.006,0,0,.187.081.059.805,0,1,0,.015,0-.015,0,0h0c-.006.089-.083-.031,0,0s-.053.071,0,0h0c.009-.012-.006.014,0,0,.081-.187.805-1.059,1-1,.015,0-.015,0,0,0h0c.089.006-.031.083,0,0s.071.053,0,0h0C107.859,20.5,107.882,20.509,107.87,20.5Z" transform="translate(-30.87 -12.162)"/><path class="r" d="M120.294,98.457c-.186-.082-.059-.805,0-1,0-.015,0,.015,0,0h0c.006-.089-.917.031-1,0s.053-.071,0,0h0c-.009.012.006-.014,0,0-.083.184.193.06,0,0-.014,0,.015,0,0,0h0a3.518,3.518,0,0,0-1,0,3.14,3.14,0,0,0,0,1h0c.012.009.986-.006,1,0,.187.081.059-.195,0,0,0,.015,0-.015,0,0h0c-.006.089-.083-.031,0,0s-.053.071,0,0h0c.009-.012-.006.014,0,0,.081-.187.805-.059,1,0,.015,0-.015,0,0,0h0c.089.006-.031.083,0,0s.071.053,0,0h0C120.283,98.449,120.307,98.462,120.294,98.457Z" transform="translate(-32.294 -21.115)"/><path class="r" d="M22.005,34.016c-.186-.082-.059-.805,0-1,0-.015,0,.015,0,0h0c.006-.089.083.031,0,0s.053-.071,0,0h0c-.009.012.006-.014,0,0-.081.187-.805.059-1,0-.014,0,.015,0,0,0h0c-.088-.006.032-.082,0,0a3.335,3.335,0,0,0,0,1h0c.012.009-.014-.006,0,0,.184.083.06-.193,0,0,0,.015,0-.015,0,0h0c-.006.089-.083-.031,0,0a3.289,3.289,0,0,0,1,0h0c.009-.012-.006.014,0,0,.081-.187-.195-.059,0,0,.015,0-.015,0,0,0h0c.089.006-.031.083,0,0s.071.053,0,0h0C22,34.009,22.016,34.021,22.005,34.016Z" transform="translate(-21.005 -13.674)"/><circle class="t" cx="0.5" cy="0.5" r="0.5" transform="translate(8 30.342)"/><circle class="t" cx="1" cy="1" r="1" transform="translate(92 35.342)"/><g class="g" transform="translate(62.878)"><rect class="u" height="2" transform="translate(1.122 0.342)"/><rect class="u" width="0.327" height="1.854" transform="translate(1.854 0.764) rotate(90)"/></g><g class="g" transform="translate(64.077 72.652)"><rect class="u" height="2" transform="translate(0.923 -0.31)"/><rect class="u" width="0.327" height="1.854" transform="translate(1.854 0.764) rotate(90)"/></g><g class="g" transform="translate(2.116 76.579)"><rect class="u" height="2" transform="translate(0.884 -0.237)"/><rect class="u" width="0.327" height="1.854" transform="translate(1.854 0.764) rotate(90)"/></g><g class="g" transform="translate(76.622 43.198)"><rect class="u" width="1" height="2" transform="translate(0.378 0.144)"/><rect class="u" width="0.327" height="1.854" transform="translate(1.854 0.764) rotate(90)"/></g><path class="t" d="M98.3,14.989v1l1-2,1,1-2,1-1-1Z" transform="translate(-11.303 -1.646)"/><path class="v" d="M48.121,73.571l1,4c.784-.255,2.2.2,3,0a2.6,2.6,0,0,1,1,0c-.327.06.091-.325,0,0a3.046,3.046,0,0,0,0,1,23.661,23.661,0,0,1,0,4,24.306,24.306,0,0,1,5-1,19.609,19.609,0,0,1-1-3,5.668,5.668,0,0,1,0-1c.052-.347.873-.672,1-1,.286-.756-.048-1.193,0-2a2.5,2.5,0,0,0,0-1,2.172,2.172,0,0,0-1-1c-.388-.153-.584.034-1,0a39.823,39.823,0,0,0-5,0c-.6,0-.456-.262-1,0C49.943,72.655,48.2,73.8,48.121,73.571Z" transform="translate(-24.121 -18.229)"/><path class="v" d="M50.959,58.994a12.477,12.477,0,0,0-3,2l-1,2c.9.42,1.153,1.485,2,2,.312.19.851-.334,1,0a6.182,6.182,0,0,1,0,2,15.839,15.839,0,0,1-1,4c1.481.327,2.679.258,4,1,.334.188.618-.031,1,0a4.9,4.9,0,0,0,1,0h3c.106-.014-.085-.935,0-1,.06-.063.97.081,1,0a8.647,8.647,0,0,0,1-4,7.309,7.309,0,0,1,0-2c.153-.651.376-1.244,1-1v-3c.032-.353.276-.773,0-1-.192-.155-.765.077-1,0-.371-.122-.673-.786-1-1-.893-.586-1.935-.092-3,0a6.438,6.438,0,0,1-2,0C52.984,58.859,51.848,58.513,50.959,58.994Z" transform="translate(-23.959 -16.652)"/></g></g></g></svg>