<svg xmlns="http://www.w3.org/2000/svg" xmlns:xlink="http://www.w3.org/1999/xlink" viewBox="0 0 30 30"><defs><style>.a{fill:#f8f8f8;}.b{clip-path:url(#a);}.c,.d{fill:#fff;}.c{opacity:0;}</style><clipPath id="a"><rect class="a" width="30" height="30" rx="6" transform="translate(1157 21)"/></clipPath></defs><g class="b" transform="translate(-1157 -21)"><g transform="translate(1157 21)"><rect class="c" width="30" height="30"/><path class="d" d="M26.9,19.847l-2.25-2.263V12.009a8.575,8.575,0,0,0-7.275-8.6,8.425,8.425,0,0,0-9.525,8.337v5.838L5.6,19.847a2.05,2.05,0,0,0,1.45,3.488h4.2v.425a4.8,4.8,0,0,0,5,4.575,4.8,4.8,0,0,0,5-4.575v-.425h4.2a2.05,2.05,0,0,0,1.45-3.487Zm-8.15,3.912a2.35,2.35,0,0,1-2.5,2.075,2.35,2.35,0,0,1-2.5-2.075v-.425h5ZM8.141,20.834l1.475-1.475a2.5,2.5,0,0,0,.738-1.775V11.747A5.913,5.913,0,0,1,12.379,7.3a5.837,5.837,0,0,1,4.675-1.462,6.075,6.075,0,0,1,5.1,6.125v5.625a2.5,2.5,0,0,0,.725,1.775l1.487,1.475Z" transform="translate(-1.254 -0.834)"/></g></g></svg>