<svg xmlns="http://www.w3.org/2000/svg" viewBox="0 0 71.584 81.997"><defs><style>.a{opacity:0.19;}.b{fill:#90bae1;}</style></defs><g class="a" transform="translate(0)"><path class="b" d="M123.691,43.4h28.827a2.4,2.4,0,0,0,2.4-2.4V12.011a2.4,2.4,0,0,0-2.4-2.4h-7.207v-2.4a7.207,7.207,0,0,0-14.413,0v2.4h-7.207a2.4,2.4,0,0,0-2.4,2.4V41A2.4,2.4,0,0,0,123.691,43.4ZM135.7,7.207a2.4,2.4,0,0,1,4.8,0v2.4h-4.8Zm0,0" transform="translate(-101.865)"/><path class="b" d="M71.236,242.158A2.4,2.4,0,0,0,69.181,241,11.381,11.381,0,0,0,59.1,247.1l-7.369,14.063a7.192,7.192,0,0,1-6.385,3.861H29.033a2.4,2.4,0,1,1,0-4.8H45.346a2.4,2.4,0,0,0,2.131-1.288l2.753-5.256a2.093,2.093,0,0,0-1.857-3.065H23.4a11.934,11.934,0,0,0-8.492,3.519L.7,268.334a2.4,2.4,0,0,0,0,3.4L12.714,283.7a2.4,2.4,0,0,0,3.4,0l9.112-9.065H45.346a16.776,16.776,0,0,0,14.9-9.011l11.063-21.1a2.394,2.394,0,0,0-.07-2.36Zm0,0" transform="translate(0 -202.404)"/></g></svg>