<svg xmlns="http://www.w3.org/2000/svg" xmlns:xlink="http://www.w3.org/1999/xlink" viewBox="0 0 74 74"><defs><style>.a{fill:#f3f3f3;}.b{clip-path:url(#a);}.c{fill:#50abff;}</style><clipPath id="a"><rect class="a" width="74" height="74" transform="translate(371 405)"/></clipPath></defs><g class="b" transform="translate(-371 -405)"><g transform="translate(371 405)"><path class="c" d="M54.33,25.727H52.653a14.309,14.309,0,1,0-17.227,0H33.748a4.023,4.023,0,0,0-4.018,4.018V39.2a4,4,0,0,0,.773,2.366,7.582,7.582,0,0,0-1.3,1.056l-1.857,1.9H23.207a4.343,4.343,0,0,0-4.09-2.9H1.445A1.445,1.445,0,0,0,0,43.061V67.342a1.445,1.445,0,0,0,1.445,1.445H19.116a4.341,4.341,0,0,0,4.3-3.749h4.515l1.559,1.549A5.548,5.548,0,0,0,33.42,68.21h3.217l.138,2.479A3.509,3.509,0,0,0,40.277,74H47.8a3.508,3.508,0,0,0,3.5-3.312l.138-2.483a4.332,4.332,0,0,0,3.072-7.223,4.326,4.326,0,0,0,0-5.781,4.326,4.326,0,0,0,0-5.781,4.327,4.327,0,0,0-.435-6.2h.252A4.023,4.023,0,0,0,58.348,39.2V29.745A4.023,4.023,0,0,0,54.33,25.727ZM20.562,64.452A1.447,1.447,0,0,1,19.116,65.9H2.891V44.507H19.116a1.447,1.447,0,0,1,1.445,1.445ZM32.621,14.309A11.418,11.418,0,1,1,44.039,25.727,11.431,11.431,0,0,1,32.621,14.309Zm15.8,56.219a.617.617,0,0,1-.616.582H40.277a.617.617,0,0,1-.615-.582l-.947-16.985a1.445,1.445,0,1,0-2.886.161l.648,11.616H33.42a2.675,2.675,0,0,1-1.9-.782l-1.982-1.969a1.445,1.445,0,0,0-1.019-.42h-5.07V47.406h4.5a1.446,1.446,0,0,0,1.032-.434l2.282-2.329a4.783,4.783,0,0,1,3.4-1.427h4.116a3.95,3.95,0,0,1,3.071,1.457l2.95,3.613a1.4,1.4,0,0,1-2.073,1.869l-2.112-2.123A4.856,4.856,0,0,0,37.2,46.611H35.376a1.445,1.445,0,0,0,0,2.891H37.2a1.946,1.946,0,0,1,1.37.57l2.112,2.123a4.253,4.253,0,0,0,4.079,1.143,4.328,4.328,0,0,0,.984,1.864,4.326,4.326,0,0,0,0,5.781,4.333,4.333,0,0,0,2.8,7.205ZM44.4,43.217h1.784a4.373,4.373,0,0,0-.914,1.065Zm6.889,22.1H48.972a1.445,1.445,0,1,1,0-2.891h2.313a1.445,1.445,0,0,1,0,2.891Zm0-5.781H48.972a1.445,1.445,0,1,1,0-2.891h2.313a1.445,1.445,0,0,1,0,2.891Zm0-5.781H48.972a1.445,1.445,0,1,1,0-2.891h2.313a1.445,1.445,0,0,1,0,2.891Zm0-5.781H48.972a1.445,1.445,0,1,1,0-2.891h2.313a1.445,1.445,0,0,1,0,2.891ZM55.457,39.2a1.129,1.129,0,0,1-1.127,1.127H33.748A1.129,1.129,0,0,1,32.621,39.2V29.745a1.129,1.129,0,0,1,1.127-1.127H54.33a1.129,1.129,0,0,1,1.127,1.127Z"/><g transform="translate(42.6 5.435)"><path class="c" d="M44.058,5.435h-.019a1.445,1.445,0,0,0,.006,2.891h.019a1.445,1.445,0,0,0-.006-2.891Z" transform="translate(-42.6 -5.435)"/></g><g transform="translate(47.383 7.185)"><path class="c" d="M49.761,7.526A1.445,1.445,0,1,0,47.9,9.735a5.975,5.975,0,0,1,2.126,4.574,1.445,1.445,0,0,0,2.891,0A8.86,8.86,0,0,0,49.761,7.526Z" transform="translate(-47.383 -7.185)"/></g><g transform="translate(17.934 21.668)"><path class="c" d="M19.379,21.668a1.445,1.445,0,0,0-1.445,1.445v1.541a1.445,1.445,0,0,0,2.891,0V23.114A1.445,1.445,0,0,0,19.379,21.668Z" transform="translate(-17.934 -21.668)"/></g><g transform="translate(17.934 28.679)"><path class="c" d="M19.379,28.679a1.445,1.445,0,0,0-1.445,1.445v1.541a1.445,1.445,0,1,0,2.891,0V30.124A1.445,1.445,0,0,0,19.379,28.679Z" transform="translate(-17.934 -28.679)"/></g><g transform="translate(20.669 25.944)"><path class="c" d="M23.655,25.944H22.114a1.445,1.445,0,0,0,0,2.891h1.541a1.445,1.445,0,0,0,0-2.891Z" transform="translate(-20.669 -25.944)"/></g><g transform="translate(13.658 25.944)"><path class="c" d="M16.644,25.944H15.1a1.445,1.445,0,1,0,0,2.891h1.541a1.445,1.445,0,0,0,0-2.891Z" transform="translate(-13.658 -25.944)"/></g><g transform="translate(66.834)"><path class="c" d="M68.279,0a1.445,1.445,0,0,0-1.445,1.445V2.986a1.445,1.445,0,1,0,2.891,0V1.445A1.445,1.445,0,0,0,68.279,0Z" transform="translate(-66.834)"/></g><g transform="translate(66.834 7.011)"><path class="c" d="M68.279,7.011a1.445,1.445,0,0,0-1.445,1.445V10a1.445,1.445,0,0,0,2.891,0V8.456A1.445,1.445,0,0,0,68.279,7.011Z" transform="translate(-66.834 -7.011)"/></g><g transform="translate(69.569 4.276)"><path class="c" d="M72.555,4.276H71.014a1.445,1.445,0,0,0,0,2.891h1.541a1.445,1.445,0,0,0,0-2.891Z" transform="translate(-69.569 -4.276)"/></g><g transform="translate(62.558 4.276)"><path class="c" d="M65.544,4.276H64a1.445,1.445,0,1,0,0,2.891h1.541a1.445,1.445,0,0,0,0-2.891Z" transform="translate(-62.558 -4.276)"/></g><g transform="translate(13.586 48.65)"><path class="c" d="M15.031,48.65A1.445,1.445,0,0,0,13.586,50.1v6.368a1.445,1.445,0,0,0,2.891,0V50.1A1.445,1.445,0,0,0,15.031,48.65Z" transform="translate(-13.586 -48.65)"/></g><g transform="translate(13.586 60.025)"><path class="c" d="M16.053,60.449a1.445,1.445,0,1,0,.423,1.022A1.456,1.456,0,0,0,16.053,60.449Z" transform="translate(-13.586 -60.025)"/></g></g></g></svg>