<svg xmlns="http://www.w3.org/2000/svg" xmlns:xlink="http://www.w3.org/1999/xlink" viewBox="0 0 83.654 83.654"><defs><style>.a{fill:#f3f3f3;}.b{clip-path:url(#a);}.c{fill:#50abff;}</style><clipPath id="a"><rect class="a" width="83.654" height="83.654" rx="10" transform="translate(371 405)"/></clipPath></defs><g class="b" transform="translate(-371 -405)"><g transform="translate(371 408.987)"><g transform="translate(0 0)"><path class="c" d="M67.917,3.527H5.149A5.154,5.154,0,0,0,0,8.675V60.982a5.154,5.154,0,0,0,5.149,5.148h41.11a1.225,1.225,0,1,0,0-2.451H41.681V55.752A5.134,5.134,0,0,0,38.513,51l-6.438-2.683a1.386,1.386,0,0,1-.855-1.283V45.121a9.1,9.1,0,0,0,2.615-6.369V33.521c0-4.281-4.07-7.764-9.071-7.764s-9.071,3.483-9.071,7.764v5.231a9.1,9.1,0,0,0,2.615,6.369v1.913a1.387,1.387,0,0,1-.855,1.283L11.014,51a5.135,5.135,0,0,0-3.168,4.752V63.68h-2.7a2.7,2.7,0,0,1-2.7-2.7V19.054H70.615V39.406a1.225,1.225,0,1,0,2.451,0V8.675A5.154,5.154,0,0,0,67.917,3.527ZM10.3,55.752a2.69,2.69,0,0,1,1.66-2.49l6.438-2.682a3.83,3.83,0,0,0,2.363-3.545v-.266a1.225,1.225,0,0,0,.694-2.282,6.647,6.647,0,0,1-3.309-5.734V33.521c0-2.93,2.97-5.313,6.621-5.313s6.621,2.383,6.621,5.313v5.231a6.647,6.647,0,0,1-3.311,5.736,1.226,1.226,0,0,0,.615,2.286c.027,0,.054,0,.081-.005v.265a3.83,3.83,0,0,0,2.364,3.545l6.438,2.683a2.69,2.69,0,0,1,1.66,2.49V63.68H10.3ZM70.615,16.6H2.451V8.675a2.7,2.7,0,0,1,2.7-2.7H67.917a2.7,2.7,0,0,1,2.7,2.7Z" transform="translate(0 -3.527)"/></g><g transform="translate(5.237 6.538)"><path class="c" d="M5.865,9.31H5.852a1.232,1.232,0,1,0,.013,0Z" transform="translate(-4.633 -9.31)"/></g><g transform="translate(13.07 6.538)"><path class="c" d="M12.794,9.31h-.013a1.232,1.232,0,1,0,.013,0Z" transform="translate(-11.562 -9.31)"/></g><g transform="translate(9.147 6.538)"><path class="c" d="M9.323,9.31H9.31a1.232,1.232,0,1,0,.013,0Z" transform="translate(-8.091 -9.31)"/></g><g transform="translate(18.307 6.538)"><path class="c" d="M64.5,9.31H17.42a1.225,1.225,0,0,0,0,2.451H64.5a1.225,1.225,0,0,0,0-2.451Z" transform="translate(-16.195 -9.31)"/></g><g transform="translate(45.896 37.923)"><path class="c" d="M77.535,43.281l-17.654-6.14a1.223,1.223,0,0,0-.805,0l-12.7,4.416a1.225,1.225,0,0,0,.805,2.315L59.479,39.6l16.37,5.694a36.7,36.7,0,0,1-16.37,26.864A36.149,36.149,0,0,1,45.358,54.648,34.319,34.319,0,0,1,43.05,44.411a1.225,1.225,0,0,0-2.45.053,36.015,36.015,0,0,0,2.432,10.962,38.585,38.585,0,0,0,15.8,19.219,1.225,1.225,0,0,0,1.3,0,38.585,38.585,0,0,0,15.8-19.219,36,36,0,0,0,2.432-10.962A1.224,1.224,0,0,0,77.535,43.281Z" transform="translate(-40.6 -37.073)"/></g><g transform="translate(56.834 50.683)"><path class="c" d="M66.183,48.72a1.225,1.225,0,0,0-1.733,0L56.873,56.3,52.367,51.79a1.225,1.225,0,0,0-1.733,1.733L56.007,58.9a1.225,1.225,0,0,0,1.733,0l8.443-8.443A1.225,1.225,0,0,0,66.183,48.72Z" transform="translate(-50.275 -48.361)"/></g><g transform="translate(39.23 20.923)"><path class="c" d="M58.159,22.035H37.236A2.536,2.536,0,0,0,34.7,24.568v3.923a2.536,2.536,0,0,0,2.533,2.533H58.159a2.536,2.536,0,0,0,2.533-2.533V24.568A2.536,2.536,0,0,0,58.159,22.035Zm.082,6.456a.082.082,0,0,1-.082.082H37.236a.082.082,0,0,1-.082-.082V24.568a.082.082,0,0,1,.082-.082H58.159a.082.082,0,0,1,.082.082Z" transform="translate(-34.703 -22.035)"/></g><g transform="translate(40.538 32.692)"><path class="c" d="M52.777,32.446H37.085a1.225,1.225,0,0,0,0,2.451H52.777a1.225,1.225,0,1,0,0-2.451Z" transform="translate(-35.86 -32.446)"/></g><g transform="translate(40.538 37.923)"><path class="c" d="M46.239,37.073H37.085a1.225,1.225,0,0,0,0,2.451h9.154a1.225,1.225,0,0,0,0-2.451Z" transform="translate(-35.86 -37.073)"/></g></g></g></svg>