<svg xmlns="http://www.w3.org/2000/svg" xmlns:xlink="http://www.w3.org/1999/xlink" viewBox="0 0 74 74"><defs><style>.a{fill:#50abff;}.b{clip-path:url(#a);}</style><clipPath id="a"><rect class="a" width="74" height="74" rx="10" transform="translate(682 675)"/></clipPath></defs><g class="b" transform="translate(-682 -675)"><g transform="translate(686.644 675)"><path class="a" d="M18.082,43.5a2.167,2.167,0,0,0,2.153.044l7.52-4.1,8.276,4.138a2.167,2.167,0,0,0,2.172-.135l5.92-3.946,8.163,4.082a2.169,2.169,0,0,0,3.137-1.939V6.812A6.814,6.814,0,0,0,48.61,0H16.1a2.168,2.168,0,0,0-1.533.635L.635,14.568A2.168,2.168,0,0,0,0,16.1V41.644a2.169,2.169,0,0,0,3.137,1.939l8.224-4.112ZM16.255,5.079v8.7a2.479,2.479,0,0,1-2.476,2.476H5.08ZM4.336,38.136V20.591h9.443a6.82,6.82,0,0,0,6.812-6.812V4.336H48.61a2.477,2.477,0,0,1,2.476,2.476V38.136L44.936,35.06a2.167,2.167,0,0,0-2.172.135l-5.92,3.946L28.681,35.06a2.168,2.168,0,0,0-2.008.036l-7.425,4.05-6.677-4.006a2.167,2.167,0,0,0-2.085-.08Zm0,0"/><path class="a" d="M63.683,44.444a2.168,2.168,0,0,0-2.109-.095l-8.224,4.112-6.72-4.032a2.168,2.168,0,0,0-2.153-.044l-7.52,4.1L28.681,44.35a2.167,2.167,0,0,0-2.172.135l-5.92,3.946L12.426,44.35a2.168,2.168,0,0,0-3.137,1.939v20.9A6.81,6.81,0,0,0,16.1,74H57.9a6.809,6.809,0,0,0,6.812-6.812v-20.9a2.166,2.166,0,0,0-1.029-1.844ZM60.376,67.188A2.476,2.476,0,0,1,57.9,69.664H16.1a2.476,2.476,0,0,1-2.476-2.476V49.8l6.151,3.076a2.167,2.167,0,0,0,2.172-.135l5.92-3.946,8.164,4.082a2.168,2.168,0,0,0,2.008-.036l7.425-4.05,6.677,4.006a2.168,2.168,0,0,0,2.084.08L60.376,49.8Zm0,0"/><path class="a" d="M13.778,29.879H41.644a2.168,2.168,0,1,0,0-4.336H13.778a2.168,2.168,0,1,0,0,4.336Zm0,0"/><path class="a" d="M27.712,20.591H41.644a2.168,2.168,0,1,0,0-4.336H27.712a2.168,2.168,0,1,0,0,4.336Zm0,0"/><path class="a" d="M50.932,56.892H23.067a2.168,2.168,0,0,0,0,4.336H50.932a2.168,2.168,0,1,0,0-4.336Zm0,0"/></g></g></svg>