<svg xmlns="http://www.w3.org/2000/svg" xmlns:xlink="http://www.w3.org/1999/xlink" viewBox="0 0 35 35"><defs><style>.a{fill:rgba(255,255,255,0.19);}.b{clip-path:url(#a);}.c,.d{fill:#fff;}.c{opacity:0;}</style><clipPath id="a"><rect class="a" width="35" height="35" rx="8" transform="translate(23 306)"/></clipPath></defs><g class="b" transform="translate(-23 -306)"><g transform="translate(23 306)"><rect class="c" width="35" height="35"/><path class="d" d="M29.342,9.785,25.215,5.658a4.375,4.375,0,0,0-3.092-1.283H12.877A4.375,4.375,0,0,0,9.785,5.658L5.658,9.785a4.375,4.375,0,0,0-1.283,3.092V26.25A4.375,4.375,0,0,0,8.75,30.625h17.5a4.375,4.375,0,0,0,4.375-4.375V12.877a4.375,4.375,0,0,0-1.283-3.092ZM17.5,23.333A5.833,5.833,0,0,1,11.667,17.5a1.458,1.458,0,0,1,2.917,0,2.917,2.917,0,1,0,5.833,0,1.458,1.458,0,0,1,2.917,0A5.833,5.833,0,0,1,17.5,23.333ZM9.348,10.208l2.494-2.494a1.531,1.531,0,0,1,1.035-.423h9.246a1.531,1.531,0,0,1,1.035.423l2.494,2.494Z"/></g></g></svg>