<svg xmlns="http://www.w3.org/2000/svg" viewBox="0 0 70.14 55.111"><defs><style>.a{opacity:0.19;}.b{fill:#75cac3;}</style></defs><g class="a" transform="translate(0 -51.198)"><g transform="translate(0 51.198)"><path class="b" d="M69.407,69.467,51.871,51.932A2.505,2.505,0,0,0,47.6,53.7v7.515H30.06a2.505,2.505,0,1,0,0,5.01H50.1a2.505,2.505,0,0,0,2.505-2.505V59.75L64.094,71.238,52.605,82.726V78.753A2.505,2.505,0,0,0,50.1,76.248H22.545V68.733a2.505,2.505,0,0,0-4.276-1.771L.733,84.5a2.5,2.5,0,0,0,0,3.542l17.535,17.535a2.5,2.5,0,0,0,1.771.734,2.473,2.473,0,0,0,.959-.19,2.5,2.5,0,0,0,1.546-2.315V96.289H40.08a2.505,2.505,0,0,0,0-5.01H20.04a2.505,2.505,0,0,0-2.505,2.505v3.973L6.046,86.268,17.535,74.78v3.973a2.505,2.505,0,0,0,2.505,2.505H47.6v7.515a2.505,2.505,0,0,0,4.276,1.771L69.407,73.009A2.505,2.505,0,0,0,69.407,69.467Z" transform="translate(0 -51.198)"/></g></g></svg>