<svg xmlns="http://www.w3.org/2000/svg" xmlns:xlink="http://www.w3.org/1999/xlink" viewBox="0 0 574 308"><defs><style>.a,.h,.m{fill:#fff;}.a,.h{opacity:0.55;}.b,.k{fill:#63b4ff;}.c{fill:#94cbfe;}.c,.i{font-size:12px;}.c,.f,.i,.j{font-family:SegoeUI, Segoe UI;}.d{fill:#fafcfd;}.d,.h{stroke:#e9e9e9;}.e{fill:url(#c);}.f,.i,.j{fill:#cecece;}.f{font-size:14px;}.g{opacity:0.6;}.j{font-size:8px;}.k{font-size:20px;}.k,.m{font-family:SegoeUI-Bold, Segoe UI;font-weight:700;}.l{fill:#5aabad;}.m{font-size:16px;}.n{stroke:none;}.o{fill:none;}.p{filter:url(#a);}</style><filter id="a" x="0" y="0" width="308" height="308" filterUnits="userSpaceOnUse"><feOffset dy="2" input="SourceAlpha"/><feGaussianBlur stdDeviation="30" result="b"/><feFlood flood-color="#242b39" flood-opacity="0.149"/><feComposite operator="in" in2="b"/><feComposite in="SourceGraphic"/></filter><linearGradient id="c" x1="0.5" x2="0.5" y2="1" gradientUnits="objectBoundingBox"><stop offset="0" stop-color="#ff9e80"/><stop offset="1" stop-color="#ffe88d"/></linearGradient></defs><g transform="translate(-107 -307)"><g transform="translate(57 -1)"><g transform="translate(0 19)"><g transform="translate(-109 23)"><g class="p" transform="matrix(1, 0, 0, 1, 159, 266)"><rect class="a" width="128" height="128" rx="2" transform="translate(90 88)"/></g><g transform="translate(8.175 -1.052)"><g transform="translate(281.016 376.623)"><path class="b" d="M39.945,8.463V3.994A4,4,0,0,0,35.95,0H3.994A4,4,0,0,0,0,3.994V21.57a3.987,3.987,0,0,0,3.582,3.953l3,7.8a4,4,0,0,0,5.163,2.291L30.5,28.386A11.549,11.549,0,0,0,31.5,38.64l.459.734v7.76a.8.8,0,0,0,.8.8h14.38a.8.8,0,0,0,.8-.8V20.764A10.455,10.455,0,0,0,44.873,13.4Zm0,4.778,2.425,6.294a2.4,2.4,0,0,1-1.376,3.1l-1.386.535a4,4,0,0,0,.337-1.6ZM1.6,21.57V3.994a2.4,2.4,0,0,1,2.4-2.4H35.95a2.4,2.4,0,0,1,2.4,2.4V9.072H38.34l.007.018V21.57a2.43,2.43,0,0,1-.054.414l-7.318-7.319a4.262,4.262,0,0,0-6.152,5.894l3.12,3.408H3.994A2.4,2.4,0,0,1,1.6,21.57Zm10.235,3.994L6.152,27.752l-.84-2.187Zm-.658,8.554a2.4,2.4,0,0,1-3.1-1.375l-1.348-3.5,9.536-3.675v0H29.407l1.038,1.132ZM46.336,46.336H33.554V39.945H46.336Zm0-7.989H33.2l-.347-.554a9.962,9.962,0,0,1-.2-10.231.8.8,0,0,0-.1-.936L26,19.483A2.664,2.664,0,0,1,29.845,15.8L42.575,28.526l1.13-1.13-2.956-2.956.82-.32a4,4,0,0,0,2.29-5.161l-2.7-7.021,2.588,2.593a8.847,8.847,0,0,1,2.593,6.232Zm0,0"/><path class="b" d="M68.412,70.489a2.077,2.077,0,0,0,2.077-2.077V64.577A2.077,2.077,0,0,0,68.412,62.5H64.577A2.077,2.077,0,0,0,62.5,64.577v3.835a2.077,2.077,0,0,0,2.077,2.077ZM64.1,68.412V67.293h1.6V65.7H64.1V64.577a.479.479,0,0,1,.479-.479h3.835a.479.479,0,0,1,.479.479V65.7h-1.6v1.6h1.6v1.118a.479.479,0,0,1-.479.479H64.577A.479.479,0,0,1,64.1,68.412Zm0,0" transform="translate(-59.304 -59.304)"/><path class="b" d="M78.125,265.625h3.2v1.6h-3.2Zm0,0" transform="translate(-74.131 -252.044)"/><path class="b" d="M78.125,359.375h3.2v1.6h-3.2Zm0,0" transform="translate(-74.131 -341)"/><path class="b" d="M359.375,359.375h3.2v1.6h-3.2Zm0,0" transform="translate(-341 -341)"/><path class="b" d="M171.875,265.625h3.2v1.6h-3.2Zm0,0" transform="translate(-163.087 -252.044)"/><path class="b" d="M265.625,265.625h3.2v1.6h-3.2Zm0,0" transform="translate(-252.044 -252.044)"/><path class="b" d="M359.375,265.625h3.2v1.6h-3.2Zm0,0" transform="translate(-341 -252.044)"/><path class="b" d="M656.25,78.125h1.6v2.4h-1.6Zm0,0" transform="translate(-622.696 -74.131)"/><path class="b" d="M593.75,78.125h1.6v2.4h-1.6Zm0,0" transform="translate(-563.392 -74.131)"/><path class="b" d="M531.25,78.125h1.6v2.4h-1.6Zm0,0" transform="translate(-504.088 -74.131)"/><path class="b" d="M468.75,78.125h1.6v2.4h-1.6Zm0,0" transform="translate(-444.783 -74.131)"/><path class="b" d="M687.5,812.5h1.6v1.6h-1.6Zm0,0" transform="translate(-652.349 -770.958)"/></g><text class="c" transform="translate(259 450.429)"><tspan x="0" y="0">Online Payment</tspan></text></g></g><g transform="translate(-109 25)"><g class="d" transform="translate(427 352)"><rect class="n" width="128" height="128" rx="2"/><rect class="o" x="0.5" y="0.5" width="127" height="127" rx="1.5"/></g><g transform="translate(0 1)"><g transform="translate(466 371.999)"><path class="e" d="M51.238,38.848H49.207V34.481h.508a2.285,2.285,0,0,0,0-4.57H39.9V27.473h.7a.762.762,0,0,0,0-1.523h-.7V18.526a2.285,2.285,0,1,0-4.57,0V25.95H28.793a.661.661,0,0,1-.66-.66V13.509a.661.661,0,0,1,.66-.66H46.058a.661.661,0,0,1,.66.66V25.29a.661.661,0,0,1-.66.66H43.875a.762.762,0,1,0,0,1.523h2.184a2.186,2.186,0,0,0,2.184-2.184V13.509a2.186,2.186,0,0,0-2.184-2.184H39.911V9.287h4.3a1.169,1.169,0,0,0,1.168-1.168V3.854a1.169,1.169,0,0,0-1.168-1.168h-13.2a1.169,1.169,0,0,0-1.168,1.168V8.119a1.169,1.169,0,0,0,1.168,1.168h4.3v2.038H28.793a2.186,2.186,0,0,0-2.184,2.184V25.29a2.186,2.186,0,0,0,2.184,2.184h6.536v2.438H23.812V25.718a8.675,8.675,0,0,0-5.344-8,6.77,6.77,0,0,0,3.2-4.088h.036a3.288,3.288,0,0,0,3.152-3.4,3.389,3.389,0,0,0-2.342-3.287,7.691,7.691,0,0,0-.086-.929A6.306,6.306,0,0,0,22.01,3.8,4.3,4.3,0,0,0,18.363.989a.48.48,0,0,1-.248-.115c-.7-.6-2.2-1.2-5.391-.67A5.411,5.411,0,0,0,8.551,3.447a9.43,9.43,0,0,0-.751,3.5,3.389,3.389,0,0,0-2.341,3.286,3.288,3.288,0,0,0,3.152,3.4h.036a6.768,6.768,0,0,0,3.2,4.088,8.676,8.676,0,0,0-5.344,8v4.193H2.285a2.285,2.285,0,0,0,0,4.57h.508v.457a.762.762,0,1,0,1.523,0v-.457H47.683v4.367H4.316v-.677a.762.762,0,1,0-1.523,0v.677H.761A.761.761,0,0,0,0,39.61v3.047a.762.762,0,0,0,.762.762H2.793v7.82A.762.762,0,0,0,3.554,52h38.7a.762.762,0,1,0,0-1.523H4.316V43.418H47.683v7.059H45.466a.762.762,0,1,0,0,1.523h2.979a.762.762,0,0,0,.762-.762v-7.82h2.031A.761.761,0,0,0,52,42.657V39.61a.762.762,0,0,0-.762-.762ZM31.368,4.209H43.86V7.764H31.368ZM36.84,9.287h1.548v2.038H36.84Zm.012,9.239a.762.762,0,1,1,1.523,0V26.7s0,.005,0,.008,0,.005,0,.008v3.131H36.852Zm-18.366.887a5.224,5.224,0,0,1-6.657,0,7.1,7.1,0,0,1,6.657,0Zm4.847-9.182A1.808,1.808,0,0,1,21.905,12.1c.012-.335,0-.057.006-2.345A2.638,2.638,0,0,0,22.4,8.535a1.925,1.925,0,0,1,.935,1.7ZM12.973,1.706c2.933-.485,3.92.126,4.152.325A2,2,0,0,0,18.17,2.5,2.783,2.783,0,0,1,20.577,4.32a5.333,5.333,0,0,1,.34,1.9A5.61,5.61,0,0,1,20.778,8.7a4.344,4.344,0,0,1-.91-2.272,1.9,1.9,0,0,0-.819-1.25,4.53,4.53,0,0,1-1.062-.952,1.547,1.547,0,0,0-1.223-.6,1.585,1.585,0,0,0-.935.308A9.755,9.755,0,0,1,11.96,5.213a1.909,1.909,0,0,0-1.565,1.5A3.974,3.974,0,0,1,9.539,8.7a4.081,4.081,0,0,1-.211-1.121v0c0-.012,0-.024,0-.036-.136-2.621.891-5.379,3.647-5.835ZM6.982,10.232a1.924,1.924,0,0,1,.936-1.7A2.67,2.67,0,0,0,8.4,9.75c0,2.289-.006,2.011.006,2.346A1.808,1.808,0,0,1,6.982,10.232Zm2.945,1.613V10.2a1.446,1.446,0,0,0,.484-.245,4.827,4.827,0,0,0,1.477-2.943.379.379,0,0,1,.311-.3A11.29,11.29,0,0,0,16.728,5.17c.019-.014.047-.019.06,0A6.041,6.041,0,0,0,18.2,6.447a.369.369,0,0,1,.163.24A5.367,5.367,0,0,0,19.9,9.956a1.45,1.45,0,0,0,.485.245v1.644a5.224,5.224,0,0,1-5.219,5.218h-.024a5.224,5.224,0,0,1-5.219-5.218Zm-1.9,13.873a7.116,7.116,0,0,1,2.5-5.42,6.743,6.743,0,0,0,4.627,1.836h0A6.744,6.744,0,0,0,19.785,20.3a7.118,7.118,0,0,1,2.5,5.42v4.193H8.027Zm-5.742,7.24a.762.762,0,0,1,0-1.523h47.43a.762.762,0,0,1,0,1.523Zm48.191,8.937H1.523V40.372H50.476Zm0,0" transform="translate(0 0)"/><path class="e" d="M157.66,234h-5.047a1.113,1.113,0,0,0,0,2.227h5.047a1.113,1.113,0,0,0,0-2.227Zm0,0" transform="translate(-136.865 -210.569)"/></g><text class="f" transform="translate(457 453.377)"><tspan x="0" y="0">Cash Point</tspan></text></g></g><g class="g" transform="translate(-109 26)"><g transform="translate(0 -1)"><g class="h" transform="translate(605 352)"><rect class="n" width="128" height="128" rx="2"/><rect class="o" x="0.5" y="0.5" width="127" height="127" rx="1.5"/></g><g transform="translate(0 1)"><g transform="translate(646.704 370)"><g transform="translate(6.468 6.225)"><path class="e" d="M78.036,68.409a6.955,6.955,0,1,0,6.955,6.955A6.963,6.963,0,0,0,78.036,68.409ZM82.7,76.872h.615A5.483,5.483,0,0,1,82.4,78.7l-.737-.737a.73.73,0,0,0-1.032,1.032l.737.737a5.466,5.466,0,0,1-2.6,1.081v-.777a.73.73,0,1,0-1.459,0v.777a5.469,5.469,0,0,1-2.6-1.081l.737-.737a.73.73,0,1,0-1.032-1.032l-.737.737a5.482,5.482,0,0,1-.919-1.826h.615a.73.73,0,0,0,0-1.459h-.826c0-.016,0-.032,0-.049a5.462,5.462,0,0,1,.813-2.873l.276.276a.73.73,0,0,0,1.032-1.032l-.38-.38a5.479,5.479,0,0,1,3.025-1.438v.777a.73.73,0,0,0,1.459,0v-.777a5.5,5.5,0,0,1,3.648,2.128l-.468.468a.73.73,0,0,0,1.032,1.032l.177-.177a5.464,5.464,0,0,1,.377,2c0,.016,0,.032,0,.049H82.7a.73.73,0,0,0,0,1.459Z" transform="translate(-71.081 -68.409)"/></g><g transform="translate(10.359 10.116)"><path class="e" d="M116.9,111.165a3.064,3.064,0,1,0,3.064,3.064A3.068,3.068,0,0,0,116.9,111.165Zm0,4.669a1.6,1.6,0,0,1-1.526-2.1l1.01,1.01a.73.73,0,0,0,1.032-1.032l-1.01-1.01a1.6,1.6,0,1,1,.494,3.131Z" transform="translate(-113.837 -111.165)"/></g><g transform="translate(6.156 24.054)"><path class="e" d="M68.967,264.612l-.069-.069a.73.73,0,1,0-1.032,1.032l.069.069a.73.73,0,1,0,1.032-1.032Z" transform="translate(-67.653 -264.329)"/></g><g transform="translate(6.156 27.167)"><path class="e" d="M68.967,298.817l-.069-.069a.73.73,0,0,0-1.032,1.032l.069.069a.73.73,0,1,0,1.032-1.032Z" transform="translate(-67.653 -298.535)"/></g><g transform="translate(6.156 30.28)"><path class="e" d="M68.967,333.021l-.069-.069a.73.73,0,0,0-1.032,1.032l.069.069a.73.73,0,1,0,1.032-1.032Z" transform="translate(-67.653 -332.738)"/></g><g transform="translate(6.156 33.392)"><path class="e" d="M68.967,367.226l-.069-.069a.73.73,0,1,0-1.032,1.032l.069.069a.73.73,0,0,0,1.032-1.032Z" transform="translate(-67.653 -366.943)"/></g><g transform="translate(6.156 35.727)"><path class="e" d="M68.967,392.879l-.069-.069a.73.73,0,1,0-1.032,1.032l.069.069a.73.73,0,1,0,1.032-1.032Z" transform="translate(-67.653 -392.596)"/></g><g transform="translate(6.156 20.942)"><path class="e" d="M68.967,230.407l-.069-.069a.73.73,0,1,0-1.032,1.032l.069.069a.73.73,0,1,0,1.032-1.032Z" transform="translate(-67.653 -230.124)"/></g><path class="e" d="M45.863,24.123h-.827V21.74a.729.729,0,0,0-.73-.73H26.36V5.4a5.4,5.4,0,0,0-5.4-5.4H5.4A5.4,5.4,0,0,0,0,5.4V24.9a.73.73,0,0,0,1.459,0V5.4A3.944,3.944,0,0,1,5.4,1.459H20.962A3.944,3.944,0,0,1,24.9,5.4V21.01H23.248V5.4a2.288,2.288,0,0,0-2.286-2.286H5.4A2.288,2.288,0,0,0,3.113,5.4V37.3A2.288,2.288,0,0,0,5.4,39.589h4.718v1.654H5.4A3.944,3.944,0,0,1,1.459,37.3V28.792a.73.73,0,0,0-1.459,0V37.3a5.4,5.4,0,0,0,5.4,5.4h4.718v2.383a1.509,1.509,0,0,0,1.508,1.508H38.179a.73.73,0,1,0,0-1.459H11.624a.049.049,0,0,1-.049-.049V22.47h7.83a.049.049,0,0,1,.049.049v2.334a.729.729,0,0,0,.73.73h24.95v19.5a.049.049,0,0,1-.049.049H41.972a.73.73,0,0,0,0,1.459h3.113a1.509,1.509,0,0,0,1.508-1.508V24.853A.729.729,0,0,0,45.863,24.123Zm-24.074,0h-.875v-1.6a1.509,1.509,0,0,0-1.508-1.508h-8.56a.729.729,0,0,0-.73.73V38.13H5.4a.828.828,0,0,1-.827-.827V5.4A.828.828,0,0,1,5.4,4.572H20.962a.828.828,0,0,1,.827.827V24.123Zm21.789,0H23.248V22.47h20.33v1.654Z"/><g transform="translate(24.512 27.236)"><path class="e" d="M273.2,299.29a3.842,3.842,0,1,0,3.842,3.842A3.847,3.847,0,0,0,273.2,299.29Zm0,6.225a2.383,2.383,0,1,1,2.383-2.383A2.386,2.386,0,0,1,273.2,305.515Z" transform="translate(-269.361 -299.29)"/></g><g transform="translate(23.734 35.017)"><path class="e" d="M267.765,384.8H263.1a2.288,2.288,0,0,0-2.286,2.286v6.225a.729.729,0,0,0,.73.73h7.782a.729.729,0,0,0,.73-.73v-6.225A2.288,2.288,0,0,0,267.765,384.8Zm.827,7.782h-6.323v-5.5a.828.828,0,0,1,.827-.827h4.669a.828.828,0,0,1,.827.827v5.5Z" transform="translate(-260.81 -384.802)"/></g></g><g transform="translate(6 -7.089)"><text class="i" transform="translate(627 450.674)"><tspan x="0" y="0">Bank Deposit</tspan></text><text class="j" transform="translate(636.726 463.473)"><tspan x="0" y="0">(coming soon)</tspan></text></g></g></g></g></g><text class="k" transform="translate(140 364)"><tspan x="0" y="0">How would you like to deposit?</tspan></text></g><circle class="l" cx="16" cy="16" r="16" transform="translate(140 343)"/><text class="m" transform="translate(151 364)"><tspan x="0" y="0">1</tspan></text></g></svg>