<svg xmlns="http://www.w3.org/2000/svg" viewBox="0 0 1450.884 470.25"><defs><style>.a{fill:#dff1fe;}.b{opacity:0.46;}.c,.d{fill:#5e83a5;}.d{opacity:0.03;}.e{fill:#f8d0d0;}.f{fill:rgba(144,186,225,0.2);}.g{fill:rgba(41,255,189,0.34);opacity:0.41;}</style></defs><g transform="translate(-15.09 157.974)"><path class="a" d="M0,0H1286V270C924.825,173.224,493.352,402.193,0,270Z" transform="translate(80)"/><g transform="translate(33 -52)"><g class="b" transform="translate(833.348 91.073) rotate(-45)"><circle class="c" cx="3" cy="3" r="3" transform="translate(193 409)"/><circle class="c" cx="3" cy="3" r="3" transform="translate(206 409)"/><circle class="c" cx="3" cy="3" r="3" transform="translate(219 409)"/><circle class="c" cx="3" cy="3" r="3" transform="translate(232 409)"/><circle class="c" cx="3" cy="3" r="3" transform="translate(245 409)"/><circle class="c" cx="3" cy="3" r="3" transform="translate(258 409)"/><circle class="c" cx="3" cy="3" r="3" transform="translate(271 409)"/><circle class="c" cx="3" cy="3" r="3" transform="translate(284 409)"/><circle class="c" cx="3" cy="3" r="3" transform="translate(297 409)"/><circle class="c" cx="3" cy="3" r="3" transform="translate(193 422)"/><circle class="c" cx="3" cy="3" r="3" transform="translate(206 422)"/><circle class="c" cx="3" cy="3" r="3" transform="translate(219 422)"/><circle class="c" cx="3" cy="3" r="3" transform="translate(232 422)"/><circle class="c" cx="3" cy="3" r="3" transform="translate(245 422)"/><circle class="c" cx="3" cy="3" r="3" transform="translate(258 422)"/><circle class="c" cx="3" cy="3" r="3" transform="translate(271 422)"/><circle class="c" cx="3" cy="3" r="3" transform="translate(284 422)"/><circle class="c" cx="3" cy="3" r="3" transform="translate(297 422)"/><circle class="c" cx="3" cy="3" r="3" transform="translate(193 435)"/><circle class="c" cx="3" cy="3" r="3" transform="translate(206 435)"/><circle class="c" cx="3" cy="3" r="3" transform="translate(219 435)"/><circle class="c" cx="3" cy="3" r="3" transform="translate(232 435)"/><circle class="c" cx="3" cy="3" r="3" transform="translate(245 435)"/><circle class="c" cx="3" cy="3" r="3" transform="translate(258 435)"/><circle class="c" cx="3" cy="3" r="3" transform="translate(271 435)"/><circle class="c" cx="3" cy="3" r="3" transform="translate(284 435)"/><circle class="c" cx="3" cy="3" r="3" transform="translate(297 435)"/><circle class="c" cx="3" cy="3" r="3" transform="translate(193 448)"/><circle class="c" cx="3" cy="3" r="3" transform="translate(206 448)"/><circle class="c" cx="3" cy="3" r="3" transform="translate(219 448)"/><circle class="c" cx="3" cy="3" r="3" transform="translate(232 448)"/><circle class="c" cx="3" cy="3" r="3" transform="translate(245 448)"/><circle class="c" cx="3" cy="3" r="3" transform="translate(258 448)"/><circle class="c" cx="3" cy="3" r="3" transform="translate(271 448)"/><circle class="c" cx="3" cy="3" r="3" transform="translate(284 448)"/><circle class="c" cx="3" cy="3" r="3" transform="translate(297 448)"/><circle class="c" cx="3" cy="3" r="3" transform="translate(193 461)"/><circle class="c" cx="3" cy="3" r="3" transform="translate(206 461)"/><circle class="c" cx="3" cy="3" r="3" transform="translate(219 461)"/><circle class="c" cx="3" cy="3" r="3" transform="translate(232 461)"/><circle class="c" cx="3" cy="3" r="3" transform="translate(245 461)"/><circle class="c" cx="3" cy="3" r="3" transform="translate(258 461)"/><circle class="c" cx="3" cy="3" r="3" transform="translate(271 461)"/><circle class="c" cx="3" cy="3" r="3" transform="translate(284 461)"/><circle class="c" cx="3" cy="3" r="3" transform="translate(297 461)"/><circle class="c" cx="3" cy="3" r="3" transform="translate(193 474)"/><circle class="c" cx="3" cy="3" r="3" transform="translate(206 474)"/><circle class="c" cx="3" cy="3" r="3" transform="translate(219 474)"/><circle class="c" cx="3" cy="3" r="3" transform="translate(232 474)"/><circle class="c" cx="3" cy="3" r="3" transform="translate(245 474)"/><circle class="c" cx="3" cy="3" r="3" transform="translate(258 474)"/><circle class="c" cx="3" cy="3" r="3" transform="translate(271 474)"/><circle class="c" cx="3" cy="3" r="3" transform="translate(284 474)"/><circle class="c" cx="3" cy="3" r="3" transform="translate(297 474)"/><circle class="c" cx="3" cy="3" r="3" transform="translate(193 487)"/><circle class="c" cx="3" cy="3" r="3" transform="translate(206 487)"/><circle class="c" cx="3" cy="3" r="3" transform="translate(219 487)"/><circle class="c" cx="3" cy="3" r="3" transform="translate(232 487)"/><circle class="c" cx="3" cy="3" r="3" transform="translate(245 487)"/><circle class="c" cx="3" cy="3" r="3" transform="translate(258 487)"/><circle class="c" cx="3" cy="3" r="3" transform="translate(271 487)"/><circle class="c" cx="3" cy="3" r="3" transform="translate(284 487)"/><circle class="c" cx="3" cy="3" r="3" transform="translate(297 487)"/><circle class="c" cx="3" cy="3" r="3" transform="translate(193 500)"/><circle class="c" cx="3" cy="3" r="3" transform="translate(206 500)"/><circle class="c" cx="3" cy="3" r="3" transform="translate(219 500)"/><circle class="c" cx="3" cy="3" r="3" transform="translate(232 500)"/><circle class="c" cx="3" cy="3" r="3" transform="translate(245 500)"/><circle class="c" cx="3" cy="3" r="3" transform="translate(258 500)"/><circle class="c" cx="3" cy="3" r="3" transform="translate(271 500)"/><circle class="c" cx="3" cy="3" r="3" transform="translate(284 500)"/><circle class="c" cx="3" cy="3" r="3" transform="translate(297 500)"/><circle class="c" cx="3" cy="3" r="3" transform="translate(193 513)"/><circle class="c" cx="3" cy="3" r="3" transform="translate(206 513)"/><circle class="c" cx="3" cy="3" r="3" transform="translate(219 513)"/><circle class="c" cx="3" cy="3" r="3" transform="translate(232 513)"/><circle class="c" cx="3" cy="3" r="3" transform="translate(245 513)"/><circle class="c" cx="3" cy="3" r="3" transform="translate(258 513)"/><circle class="c" cx="3" cy="3" r="3" transform="translate(271 513)"/><circle class="c" cx="3" cy="3" r="3" transform="translate(284 513)"/><circle class="c" cx="3" cy="3" r="3" transform="translate(297 513)"/><circle class="c" cx="3" cy="3" r="3" transform="translate(193 526)"/><circle class="c" cx="3" cy="3" r="3" transform="translate(206 526)"/><circle class="c" cx="3" cy="3" r="3" transform="translate(219 526)"/><circle class="c" cx="3" cy="3" r="3" transform="translate(232 526)"/><circle class="c" cx="3" cy="3" r="3" transform="translate(245 526)"/><circle class="c" cx="3" cy="3" r="3" transform="translate(258 526)"/><circle class="c" cx="3" cy="3" r="3" transform="translate(271 526)"/><circle class="c" cx="3" cy="3" r="3" transform="translate(284 526)"/><circle class="c" cx="3" cy="3" r="3" transform="translate(297 526)"/><circle class="c" cx="3" cy="3" r="3" transform="translate(193 539)"/><circle class="c" cx="3" cy="3" r="3" transform="translate(206 539)"/><circle class="c" cx="3" cy="3" r="3" transform="translate(219 539)"/><circle class="c" cx="3" cy="3" r="3" transform="translate(232 539)"/><circle class="c" cx="3" cy="3" r="3" transform="translate(245 539)"/><circle class="c" cx="3" cy="3" r="3" transform="translate(258 539)"/><circle class="c" cx="3" cy="3" r="3" transform="translate(271 539)"/><circle class="c" cx="3" cy="3" r="3" transform="translate(284 539)"/><circle class="c" cx="3" cy="3" r="3" transform="translate(297 539)"/></g><g class="b" transform="translate(34.348 -180.927) rotate(-45)"><circle class="c" cx="3" cy="3" r="3" transform="translate(193 409)"/><circle class="c" cx="3" cy="3" r="3" transform="translate(206 409)"/><circle class="c" cx="3" cy="3" r="3" transform="translate(219 409)"/><circle class="c" cx="3" cy="3" r="3" transform="translate(232 409)"/><circle class="c" cx="3" cy="3" r="3" transform="translate(245 409)"/><circle class="c" cx="3" cy="3" r="3" transform="translate(258 409)"/><circle class="c" cx="3" cy="3" r="3" transform="translate(271 409)"/><circle class="c" cx="3" cy="3" r="3" transform="translate(284 409)"/><circle class="c" cx="3" cy="3" r="3" transform="translate(297 409)"/><circle class="c" cx="3" cy="3" r="3" transform="translate(193 422)"/><circle class="c" cx="3" cy="3" r="3" transform="translate(206 422)"/><circle class="c" cx="3" cy="3" r="3" transform="translate(219 422)"/><circle class="c" cx="3" cy="3" r="3" transform="translate(232 422)"/><circle class="c" cx="3" cy="3" r="3" transform="translate(245 422)"/><circle class="c" cx="3" cy="3" r="3" transform="translate(258 422)"/><circle class="c" cx="3" cy="3" r="3" transform="translate(271 422)"/><circle class="c" cx="3" cy="3" r="3" transform="translate(284 422)"/><circle class="c" cx="3" cy="3" r="3" transform="translate(297 422)"/><circle class="c" cx="3" cy="3" r="3" transform="translate(193 435)"/><circle class="c" cx="3" cy="3" r="3" transform="translate(206 435)"/><circle class="c" cx="3" cy="3" r="3" transform="translate(219 435)"/><circle class="c" cx="3" cy="3" r="3" transform="translate(232 435)"/><circle class="c" cx="3" cy="3" r="3" transform="translate(245 435)"/><circle class="c" cx="3" cy="3" r="3" transform="translate(258 435)"/><circle class="c" cx="3" cy="3" r="3" transform="translate(271 435)"/><circle class="c" cx="3" cy="3" r="3" transform="translate(284 435)"/><circle class="c" cx="3" cy="3" r="3" transform="translate(297 435)"/><circle class="c" cx="3" cy="3" r="3" transform="translate(193 448)"/><circle class="c" cx="3" cy="3" r="3" transform="translate(206 448)"/><circle class="c" cx="3" cy="3" r="3" transform="translate(219 448)"/><circle class="c" cx="3" cy="3" r="3" transform="translate(232 448)"/><circle class="c" cx="3" cy="3" r="3" transform="translate(245 448)"/><circle class="c" cx="3" cy="3" r="3" transform="translate(258 448)"/><circle class="c" cx="3" cy="3" r="3" transform="translate(271 448)"/><circle class="c" cx="3" cy="3" r="3" transform="translate(284 448)"/><circle class="c" cx="3" cy="3" r="3" transform="translate(297 448)"/><circle class="c" cx="3" cy="3" r="3" transform="translate(193 461)"/><circle class="c" cx="3" cy="3" r="3" transform="translate(206 461)"/><circle class="c" cx="3" cy="3" r="3" transform="translate(219 461)"/><circle class="c" cx="3" cy="3" r="3" transform="translate(232 461)"/><circle class="c" cx="3" cy="3" r="3" transform="translate(245 461)"/><circle class="c" cx="3" cy="3" r="3" transform="translate(258 461)"/><circle class="c" cx="3" cy="3" r="3" transform="translate(271 461)"/><circle class="c" cx="3" cy="3" r="3" transform="translate(284 461)"/><circle class="c" cx="3" cy="3" r="3" transform="translate(297 461)"/><circle class="c" cx="3" cy="3" r="3" transform="translate(193 474)"/><circle class="c" cx="3" cy="3" r="3" transform="translate(206 474)"/><circle class="c" cx="3" cy="3" r="3" transform="translate(219 474)"/><circle class="c" cx="3" cy="3" r="3" transform="translate(232 474)"/><circle class="c" cx="3" cy="3" r="3" transform="translate(245 474)"/><circle class="c" cx="3" cy="3" r="3" transform="translate(258 474)"/><circle class="c" cx="3" cy="3" r="3" transform="translate(271 474)"/><circle class="c" cx="3" cy="3" r="3" transform="translate(284 474)"/><circle class="c" cx="3" cy="3" r="3" transform="translate(297 474)"/><circle class="c" cx="3" cy="3" r="3" transform="translate(193 487)"/><circle class="c" cx="3" cy="3" r="3" transform="translate(206 487)"/><circle class="c" cx="3" cy="3" r="3" transform="translate(219 487)"/><circle class="c" cx="3" cy="3" r="3" transform="translate(232 487)"/><circle class="c" cx="3" cy="3" r="3" transform="translate(245 487)"/><circle class="c" cx="3" cy="3" r="3" transform="translate(258 487)"/><circle class="c" cx="3" cy="3" r="3" transform="translate(271 487)"/><circle class="c" cx="3" cy="3" r="3" transform="translate(284 487)"/><circle class="c" cx="3" cy="3" r="3" transform="translate(297 487)"/><circle class="c" cx="3" cy="3" r="3" transform="translate(193 500)"/><circle class="c" cx="3" cy="3" r="3" transform="translate(206 500)"/><circle class="c" cx="3" cy="3" r="3" transform="translate(219 500)"/><circle class="c" cx="3" cy="3" r="3" transform="translate(232 500)"/><circle class="c" cx="3" cy="3" r="3" transform="translate(245 500)"/><circle class="c" cx="3" cy="3" r="3" transform="translate(258 500)"/><circle class="c" cx="3" cy="3" r="3" transform="translate(271 500)"/><circle class="c" cx="3" cy="3" r="3" transform="translate(284 500)"/><circle class="c" cx="3" cy="3" r="3" transform="translate(297 500)"/><circle class="c" cx="3" cy="3" r="3" transform="translate(193 513)"/><circle class="c" cx="3" cy="3" r="3" transform="translate(206 513)"/><circle class="c" cx="3" cy="3" r="3" transform="translate(219 513)"/><circle class="c" cx="3" cy="3" r="3" transform="translate(232 513)"/><circle class="c" cx="3" cy="3" r="3" transform="translate(245 513)"/><circle class="c" cx="3" cy="3" r="3" transform="translate(258 513)"/><circle class="c" cx="3" cy="3" r="3" transform="translate(271 513)"/><circle class="c" cx="3" cy="3" r="3" transform="translate(284 513)"/><circle class="c" cx="3" cy="3" r="3" transform="translate(297 513)"/><circle class="c" cx="3" cy="3" r="3" transform="translate(193 526)"/><circle class="c" cx="3" cy="3" r="3" transform="translate(206 526)"/><circle class="c" cx="3" cy="3" r="3" transform="translate(219 526)"/><circle class="c" cx="3" cy="3" r="3" transform="translate(232 526)"/><circle class="c" cx="3" cy="3" r="3" transform="translate(245 526)"/><circle class="c" cx="3" cy="3" r="3" transform="translate(258 526)"/><circle class="c" cx="3" cy="3" r="3" transform="translate(271 526)"/><circle class="c" cx="3" cy="3" r="3" transform="translate(284 526)"/><circle class="c" cx="3" cy="3" r="3" transform="translate(297 526)"/><circle class="c" cx="3" cy="3" r="3" transform="translate(193 539)"/><circle class="c" cx="3" cy="3" r="3" transform="translate(206 539)"/><circle class="c" cx="3" cy="3" r="3" transform="translate(219 539)"/><circle class="c" cx="3" cy="3" r="3" transform="translate(232 539)"/><circle class="c" cx="3" cy="3" r="3" transform="translate(245 539)"/><circle class="c" cx="3" cy="3" r="3" transform="translate(258 539)"/><circle class="c" cx="3" cy="3" r="3" transform="translate(271 539)"/><circle class="c" cx="3" cy="3" r="3" transform="translate(284 539)"/><circle class="c" cx="3" cy="3" r="3" transform="translate(297 539)"/></g></g><ellipse class="d" cx="52" cy="40" rx="52" ry="40" transform="translate(15.09 154.364) rotate(-45)"/><ellipse class="d" cx="24.5" cy="28.5" rx="24.5" ry="28.5" transform="translate(338.09 247.364) rotate(-45)"/><path class="e" d="M-143.593-180.638l-6.956,9.574-11.255-3.657v-11.834l11.255-3.657Z" transform="matrix(0.695, -0.719, 0.719, 0.695, 1067.111, 254.639)"/><path class="e" d="M-143.593-180.638l-6.956,9.574-11.255-3.657v-11.834l11.255-3.657Z" transform="matrix(0.695, -0.719, 0.719, 0.695, 1169.111, 55.639)"/><path class="e" d="M-143.593-180.638l-6.956,9.574-11.255-3.657v-11.834l11.255-3.657Z" transform="matrix(0.695, -0.719, 0.719, 0.695, 1567.111, 109.639)"/><path class="e" d="M-143.593-180.638l-6.956,9.574-11.255-3.657v-11.834l11.255-3.657Z" transform="matrix(0.695, -0.719, 0.719, 0.695, 906.111, 15.639)"/><path class="e" d="M-143.593-180.638l-6.956,9.574-11.255-3.657v-11.834l11.255-3.657Z" transform="matrix(0.695, -0.719, 0.719, 0.695, 1274.111, 194.639)"/><path class="f" d="M1722.236,3007.179l13.133,16.218,12.9-16.218s-4.6-9.543-6.2-10.466c-7.356,7.29-7.026-4.86-13.8,0C1726.726,2997.528,1722.236,3007.179,1722.236,3007.179Z" transform="translate(-1566.794 -2942.529)"/><path class="e" d="M-143.593-180.638l-6.956,9.574-11.255-3.657v-11.834l11.255-3.657Z" transform="matrix(0.695, -0.719, 0.719, 0.695, 564.111, 128.639)"/><path class="e" d="M-153.632-185.915l-3.121,4.3-5.05-1.641v-5.31l5.05-1.641Z" transform="matrix(0.695, -0.719, 0.719, 0.695, 742.394, 132.695)"/><path class="e" d="M-143.593-180.638l-6.956,9.574-11.255-3.657v-11.834l11.255-3.657Z" transform="matrix(0.695, -0.719, 0.719, 0.695, 445.111, 246.639)"/><circle class="c" cx="4" cy="4" r="4" transform="translate(774.612 52.808) rotate(-45)"/><circle class="c" cx="4" cy="4" r="4" transform="translate(895.612 140.808) rotate(-45)"/><ellipse class="d" cx="45" cy="41" rx="45" ry="41" transform="translate(522.989 167.464) rotate(-45)"/><circle class="c" cx="4" cy="4" r="4" transform="translate(1136.612 63.808) rotate(-45)"/><circle class="c" cx="4" cy="4" r="4" transform="translate(1198.612 246.808) rotate(-45)"/><circle class="c" cx="4" cy="4" r="4" transform="translate(1019.612 69.808) rotate(-45)"/><circle class="c" cx="4" cy="4" r="4" transform="translate(216.612 139.808) rotate(-45)"/><circle class="c" cx="4" cy="4" r="4" transform="translate(291.612 39.808) rotate(-45)"/><circle class="c" cx="4" cy="4" r="4" transform="translate(309.612 230.808) rotate(-45)"/><circle class="c" cx="4" cy="4" r="4" transform="translate(1130.612 178.808) rotate(-45)"/><path class="g" d="M-45.259-78.057c0,3.711-9.562,9.278-12.749,7.423s-10.552-14.077,0-14.077S-45.259-81.769-45.259-78.057Z" transform="translate(380.112 94.63) rotate(90)"/><path class="g" d="M-45.259-78.057c0,3.711-9.562,9.278-12.749,7.423s-10.552-14.077,0-14.077S-45.259-81.769-45.259-78.057Z" transform="translate(328.112 209.63) rotate(90)"/><path class="g" d="M-45.259-78.057c0,3.711-9.562,9.278-12.749,7.423s-10.552-14.077,0-14.077S-45.259-81.769-45.259-78.057Z" transform="translate(542.112 126.63) rotate(90)"/><path class="g" d="M-57.01-82.347c0,1.319-3.4,3.3-4.531,2.638s-3.75-5,0-5S-57.01-83.666-57.01-82.347Z" transform="translate(633.456 272.505) rotate(90)"/></g></svg>