<svg xmlns="http://www.w3.org/2000/svg" xmlns:xlink="http://www.w3.org/1999/xlink" viewBox="0 0 123.381 96.499"><defs><style>.a,.x{fill:#fff;}.a{stroke:#707070;}.b{clip-path:url(#a);}.c{fill:#85848b;}.d{fill:#504f60;}.e{opacity:0.2;}.f{fill:#6c63ff;}.g{fill:#514e7f;}.h{fill:#464353;}.i{fill:#f1d4a8;}.j{fill:#f3764a;}.k{fill:#64c180;}.l{fill:#a5eeb8;}.m,.z{opacity:0.1;}.n{fill:#33323d;}.o{fill:#8dd070;}.p{fill:#64bec1;}.q{fill:#fbd6be;}.r,.v{opacity:0.05;}.s{fill:#3f3d56;}.t{fill:url(#b);}.u{fill:#2d293d;}.w{fill:#bc906d;}.y{fill:#575988;}.aa{fill:#43a2bf;}</style><clipPath id="a"><rect class="a" width="123.381" height="96.499"/></clipPath><linearGradient id="b" x1="0.5" y1="1" x2="0.5" gradientUnits="objectBoundingBox"><stop offset="0" stop-color="gray" stop-opacity="0.251"/><stop offset="0.54" stop-color="gray" stop-opacity="0.122"/><stop offset="1" stop-color="gray" stop-opacity="0.102"/></linearGradient></defs><g class="b" transform="translate(0 0)"><rect class="c" width="123.381" height="0.902" transform="translate(123 105.233)"/><path class="d" d="M148.38,111.261c0,.694-4.043,2.715-8.845,2.715s-8.544-2.022-8.544-2.715,3.892-.47,8.7-.47S148.38,110.566,148.38,111.261Z" transform="translate(72.37 -21.948)"/><path class="e" d="M148.38,111.488c0,.694-4.043,2.715-8.845,2.715s-8.544-2.022-8.544-2.715" transform="translate(72.37 -22.175)"/><path class="f" d="M85.907,92.194a5.367,5.367,0,0,0,2.335-.079c.118-.036.247-.118.235-.235a.284.284,0,0,0-.053-.118,7.261,7.261,0,0,1-.705-1.344.118.118,0,0,0-.043-.061.111.111,0,0,0-.075,0c-.344.091-.642.313-.984.408a1.4,1.4,0,0,1-.536.04c-.155-.018-.367-.146-.508-.129C85.652,91.191,85.847,91.67,85.907,92.194Z" transform="translate(86.483 -15.608)"/><path class="f" d="M107.057,89.935a4.079,4.079,0,0,0,1.349-1.267.22.22,0,0,0,.036-.109.226.226,0,0,0-.043-.106,4.368,4.368,0,0,0-1.1-1.184,3.2,3.2,0,0,0-.611.564c-.129.136-.487.353-.49.561,0,.118.136.254.2.353.086.127.167.256.245.388A4.6,4.6,0,0,1,107.057,89.935Z" transform="translate(80.073 -14.65)"/><path class="g" d="M86.9,94.147a.523.523,0,0,1-.094.341.462.462,0,0,1-.2.118c-1.09.39-2.351-.1-3.438.288-.223.079-.435.193-.659.268a3.589,3.589,0,0,1-.823.146c-.384.036-.771.06-1.157.071a2.781,2.781,0,0,1-.872-.076,1.047,1.047,0,0,1-.669-.53.509.509,0,0,1-.033-.377.407.407,0,0,1,.072-.118,1.031,1.031,0,0,1,.256-.208l.4-.259a2.69,2.69,0,0,1,.608-.322c.159-.052.327-.074.488-.118a3.311,3.311,0,0,0,1.393-1.04l.545-.582a.549.549,0,0,1,.189-.152.524.524,0,0,1,.235-.022,3.143,3.143,0,0,1,1.487.5,1.927,1.927,0,0,0,.367.216,1.31,1.31,0,0,0,1.025-.127c.14-.075.109-.118.168-.252s.2-.22.327-.1a.346.346,0,0,1,.078.148,4.17,4.17,0,0,1,.073,1.212.534.534,0,0,0,.024.188,1.064,1.064,0,0,0,.107.174.4.4,0,0,1,.022.045,1.2,1.2,0,0,1,.079.568Z" transform="translate(88.545 -15.986)"/><path class="h" d="M86.9,95.051a.523.523,0,0,1-.094.341.462.462,0,0,1-.2.118c-1.09.39-2.351-.1-3.438.288-.223.079-.435.193-.659.268a3.589,3.589,0,0,1-.823.146c-.384.036-.771.06-1.157.071a2.782,2.782,0,0,1-.872-.076,1.047,1.047,0,0,1-.669-.53.509.509,0,0,1-.033-.377.407.407,0,0,1,.072-.118c.063.133.109.309.149.373a.763.763,0,0,0,.51.368,1.267,1.267,0,0,0,.47-.06,23.674,23.674,0,0,0,2.986-.618,6.9,6.9,0,0,1,.978-.376,7.69,7.69,0,0,1,1.058-.086c.557-.045,1.1-.213,1.646-.3a1.2,1.2,0,0,1,.074.571Z" transform="translate(88.545 -16.89)"/><path class="g" d="M108.281,90.185a1.981,1.981,0,0,1-.6,1.072,7.01,7.01,0,0,0-.843.922,7.421,7.421,0,0,1-.776,1.331,2.127,2.127,0,0,1-.47.335,3.281,3.281,0,0,1-.605.279,4.517,4.517,0,0,1-1.71.093,1.539,1.539,0,0,1-.543-.1,1.635,1.635,0,0,1-.226-.139,1.078,1.078,0,0,1-.353-.353.353.353,0,0,1-.034-.256.6.6,0,0,1,.163-.249,3.88,3.88,0,0,1,.414-.373,2.477,2.477,0,0,0,.538-.47,1.518,1.518,0,0,0,.208-.47,4.17,4.17,0,0,0,.152-.9,2.85,2.85,0,0,1,.062-.6c.087-.31.317-.588.292-.909a.227.227,0,0,1,.012-.138.192.192,0,0,1,.108-.067,1.916,1.916,0,0,1,.562-.13.655.655,0,0,1,.522.2c.08.1.133.235.25.273a.4.4,0,0,0,.179.007,1.5,1.5,0,0,0,.823-.253,1.026,1.026,0,0,0,.341-.749c0-.107-.048-.219.118-.235.125-.016.223.118.287.2a2.785,2.785,0,0,1,.55,1,.3.3,0,0,1,.1-.02.455.455,0,0,1,.375.192A.746.746,0,0,1,108.281,90.185Z" transform="translate(81.344 -14.971)"/><path class="h" d="M108.3,90.71a1.981,1.981,0,0,1-.6,1.072,7.01,7.01,0,0,0-.843.922,7.421,7.421,0,0,1-.776,1.331,2.128,2.128,0,0,1-.47.335,3.281,3.281,0,0,1-.605.279,4.517,4.517,0,0,1-1.71.093,1.539,1.539,0,0,1-.543-.1,1.636,1.636,0,0,1-.226-.139,1.078,1.078,0,0,1-.353-.353.859.859,0,0,1,.353-.085c.254.014.44.254.683.328.347.1.692-.14,1.044-.223.229-.054.47-.04.7-.118a1.723,1.723,0,0,0,.516-.313,2.627,2.627,0,0,0,.551-.531,3.414,3.414,0,0,0,.323-.645,9.227,9.227,0,0,1,.654-1.251.884.884,0,0,1,.133-.174,1.851,1.851,0,0,1,.18-.13,1.366,1.366,0,0,0,.415-.757,1.325,1.325,0,0,1,.093-.253.455.455,0,0,1,.375.192A.746.746,0,0,1,108.3,90.71Z" transform="translate(81.324 -15.496)"/><path class="i" d="M75.1,36.551a2.493,2.493,0,0,1,.705.823,16.98,16.98,0,0,1,1.058,3.185c.309-.312,1.528-.362,1.841-.674.13-.13.835-.782.94-.933s.891-.47.977-.63c.321-.575-2.276-2.753-1.943-3.321a.148.148,0,0,0,.027-.089.146.146,0,0,0-.043-.069,3.894,3.894,0,0,0-.751-.514,1.191,1.191,0,0,1-.572-.682,2.469,2.469,0,0,0-.664.449q-.715.612-1.4,1.25c-.18.167-.528.389-.611.628C74.555,36.229,74.924,36.412,75.1,36.551Z" transform="translate(89.88 2.012)"/><path class="j" d="M79.926,36.519a7.65,7.65,0,0,0-1.112.91,2.213,2.213,0,0,0-.705,1.133c-.033.175-.028.353-.055.53-.118.77-.783,1.334-1.077,2.055a3.563,3.563,0,0,0-.187.688,8.128,8.128,0,0,0-.135,1.35c-.007.438.423.741.581,1.15a7.02,7.02,0,0,1,.28,1.25A14.8,14.8,0,0,0,78.22,47.9c.58,1.6,2.458,6.027,3.038,7.629,1.776-.446,6.5-1.469,8.077-2.409.524-.313-3.638-3.84-3.078-4.084a.209.209,0,0,0,.158-.3c-.561-2.452-2.315-4.467-3.11-6.855a20.8,20.8,0,0,0-1.148-2.324c-.341-.714-.523-1.5-.931-2.181a1.375,1.375,0,0,0-.3-.37,1.754,1.754,0,0,0-.328-.2C80.367,36.7,80.151,36.633,79.926,36.519Z" transform="translate(89.253 1.119)"/><circle class="i" cx="2.78" cy="2.78" r="2.78" transform="translate(162.29 32.724)"/><path class="h" d="M79.542,35.207a.932.932,0,0,1,1.045-.15.505.505,0,0,1,.31.5l1.379.021a2.768,2.768,0,0,1,.654.06.95.95,0,0,1,.545.342c.016.022.035.049.063.053a.1.1,0,0,0,.063-.021,1.2,1.2,0,0,1,.687-.118,3.709,3.709,0,0,1,2.018.886.652.652,0,0,1,.235.293c.048.156-.009.353.118.464A16.552,16.552,0,0,0,87.4,41.3a1.688,1.688,0,0,0,.417.6,2.418,2.418,0,0,1,.446.665c.252.654-.1,1.422.149,2.078a3.562,3.562,0,0,0,.47.746,1.93,1.93,0,0,1,.4.964c.011.158-.009.316,0,.47a2.846,2.846,0,0,0,.118.624q.15.569.315,1.137a2.58,2.58,0,0,0,.959,1.6,7.83,7.83,0,0,1-3.977-.015,2.062,2.062,0,0,1-.5-.248,2.858,2.858,0,0,1-.871-1.4,6.628,6.628,0,0,1-.485-1.811,2.08,2.08,0,0,0-.083-.588,1.674,1.674,0,0,0-.781-.736,3.748,3.748,0,0,1-.94-.731,1.461,1.461,0,0,1-.381-1.1c.024-.194.1-.381.107-.576a.451.451,0,0,0-.267-.47c-.963-.292-1.422-1.432-1.636-2.415a7.752,7.752,0,0,1-.123-1.54l-.013-1A1.324,1.324,0,0,1,80.3,36.6a1.13,1.13,0,0,0-.006-.315.869.869,0,0,0-.221-.335,2.991,2.991,0,0,1-.528-.739Z" transform="translate(88.356 1.604)"/><path class="h" d="M75.159,39.557a7.7,7.7,0,0,1-.031.933c-.027.118-.074.235-.108.344a2.022,2.022,0,0,0,.128,1.308,7.288,7.288,0,0,0,.669,1.158,1.881,1.881,0,0,1,.214.4,2.075,2.075,0,0,1,.082.457,14.2,14.2,0,0,0,.327,1.848,46.539,46.539,0,0,0,1.975,5.446.443.443,0,0,0,.268.182.488.488,0,0,0,.228-.047l.705-.27a.461.461,0,0,0,.163-.089.421.421,0,0,0,.1-.277,48.046,48.046,0,0,0-1.639-5.65,43.212,43.212,0,0,1-1.717-4.908,3.566,3.566,0,0,0-.5-1.569c-.142-.155-.094-.089-.264-.008a1.931,1.931,0,0,0-.249.13A.816.816,0,0,0,75.159,39.557Z" transform="translate(89.778 0.432)"/><path class="h" d="M94.928,54.709" transform="translate(83.575 -4.533)"/><path class="k" d="M78.276,42.265c.189,1,.384,2,.578,3l2.76-.723a1.94,1.94,0,0,0-.235-.823c-.252-.631-.257-1.334-.461-1.983-.154-.494-.422-.947-.567-1.445-.083-.289-.126-.588-.208-.88a6.4,6.4,0,0,0-.324-.841,5.262,5.262,0,0,0-.6-1.116,1.755,1.755,0,0,0-.93.6,1.3,1.3,0,0,0-.172.588c-.048.62.176,1.243.1,1.859a5.466,5.466,0,0,0,.058,1.762Z" transform="translate(88.801 0.829)"/><path class="h" d="M82.57,61.049a3.3,3.3,0,0,1-.253,1.788,13.857,13.857,0,0,0-.562,2.692,2.33,2.33,0,0,1-.139.681c-.087.2-.235.362-.336.549a2.757,2.757,0,0,0-.21,1.653c.04.37.1.739.174,1.1a2.792,2.792,0,0,1,.072,1.346c.219-.048.367.235.353.457a1.22,1.22,0,0,0,.021.662c.27.1.273.47.264.758a6.377,6.377,0,0,0,.188,1.481q.614,2.951,1.3,5.885a4.544,4.544,0,0,0,3.1.2.622.622,0,0,0,.393-.395.689.689,0,0,0-.038-.3l-.449-1.634a3,3,0,0,1-.161-1.208c.043-.3.175-.628.027-.895-.051-.092-.13-.163-.189-.25-.235-.344-.112-.805-.093-1.223a.968.968,0,0,0-.019-.28,1.4,1.4,0,0,0-.134-.307,4.693,4.693,0,0,1-.517-2.335.577.577,0,0,0-.041-.3.984.984,0,0,1-.076-.125.341.341,0,0,1,.025-.225,2.058,2.058,0,0,1-.362-.353A.507.507,0,0,0,85,69.679a.265.265,0,0,0,.126-.455c-.058-.04-.134-.058-.175-.118-.063-.087-.012-.208.04-.3l.274-.495c.2-.368.25-.823.47-1.176a8.809,8.809,0,0,0,.724-1.653l.791-2.183.533.462a1.683,1.683,0,0,1,.437.5,2.151,2.151,0,0,1,.142.6c.2,1.185.94,2.212,1.217,3.38a2.226,2.226,0,0,0,.252.755,1.645,1.645,0,0,1,.143.216,1.147,1.147,0,0,1,.06.359,1.673,1.673,0,0,0,.705,1.2c.262.18.588.3.73.588a1.1,1.1,0,0,0,.118.25c.127.153.4.17.455.362.031.107-.026.235.034.329a.311.311,0,0,0,.13.1l.765.382c.856.428,1.293,1.411,1.924,2.127a4.585,4.585,0,0,1,.576.762c.273.488.4,1.1.859,1.411a1.3,1.3,0,0,1,.334.248c.145.19.092.457.1.7s.2.525.424.453a1.673,1.673,0,0,0,0,.888,4.467,4.467,0,0,0,2.711-1.1,1.07,1.07,0,0,0,.441-.741.266.266,0,0,0-.033-.147.42.42,0,0,0-.173-.13c-.716-.388-.931-1.287-1.293-2.017a17.48,17.48,0,0,0-1.176-1.8c-.851-1.287-1.432-2.845-2.719-3.695a1.85,1.85,0,0,1-.755-.662c-.079-.173-.088-.37-.15-.549a.476.476,0,0,0-.4-.353,2.464,2.464,0,0,0,.092-.853,1.077,1.077,0,0,0-.042-.368,1.79,1.79,0,0,0-.189-.364,3.5,3.5,0,0,1-.484-1.881,3.084,3.084,0,0,0-.033-1.014c-.052-.163-.142-.313-.2-.47a2.938,2.938,0,0,1-.147-.884l-.071-1.13a5.558,5.558,0,0,0-.146-1.117c-.235-.877-.47-4.55-1.275-4.964s-2.189,2.413-3.1,2.469a4.031,4.031,0,0,0-1.176.227,5.727,5.727,0,0,0-1.6,1.058l-1.667,1.4A6.142,6.142,0,0,1,82.57,61.049Z" transform="translate(87.892 -4.649)"/><path class="h" d="M71.336,28.588a2.1,2.1,0,0,1,1.618-.789,3.767,3.767,0,0,1,1.788.449,2.209,2.209,0,0,0,.522.214c.294.06.621-.02.886.118a1.062,1.062,0,0,1,.39,1.058,1.942,1.942,0,0,0,.106,1.176,2.716,2.716,0,0,1,.2.307,1.014,1.014,0,0,1-.016.654,4.238,4.238,0,0,1-.337-.431.4.4,0,0,0-.487-.126c-.152.1-.149.288-.158.455s-.051.367-.208.421a.337.337,0,0,1-.353-.138c-.269-.329-.161-.855-.428-1.186-.152-.188-.4-.28-.544-.477-.111-.155-.139-.353-.235-.52s-.321-.289-.47-.174a.636.636,0,0,0-.126.168.723.723,0,0,1-.858.259,1.435,1.435,0,0,0-.371-.161.46.46,0,0,0-.424.235.918.918,0,0,0-.118.491,1.132,1.132,0,0,1-.092.674.7.7,0,0,1-.188.179.586.586,0,0,1-.651.067.489.489,0,0,1-.146-.456,3.689,3.689,0,0,1,.139-.482c.1-.364-.032-.775.081-1.118A3.569,3.569,0,0,1,71.336,28.588Z" transform="translate(91.126 3.829)"/><path class="l" d="M73.811,38.718a.428.428,0,0,0,.026.255.406.406,0,0,0,.139.133,2.852,2.852,0,0,0,1.31.424.4.4,0,0,1,.181.047.318.318,0,0,1,.076.364.949.949,0,0,0-.083.388c.034.246.326.353.571.389a1.329,1.329,0,0,0,.995-.194,1.537,1.537,0,0,0,.41-.615c.675-1.551.911-3.264,1.594-4.81a1.02,1.02,0,0,0,.1-.322.317.317,0,0,0-.127-.3c-.127-.079-.324-.034-.41-.158-.042-.062-.038-.147-.075-.213-.079-.14-.286-.118-.427-.2-.11-.059-.187-.18-.31-.2a.39.39,0,0,0-.321.139,4.133,4.133,0,0,0-.835,1.4,16.469,16.469,0,0,1-1.194,2.215,1.291,1.291,0,0,0-.374-.732c-.21-.042-.48.327-.594.464A2.958,2.958,0,0,0,73.811,38.718Z" transform="translate(90.14 1.992)"/><path class="m" d="M79.42,34.163a.563.563,0,0,0-.436.219,1.244,1.244,0,0,0-.182.588,5.108,5.108,0,0,1-.692,1.86" transform="translate(88.801 1.851)"/><path class="m" d="M80.3,34.844a.671.671,0,0,0-.57.342,1.921,1.921,0,0,0-.143.581,3.187,3.187,0,0,1-.57,1.221" transform="translate(88.519 1.64)"/><path class="n" d="M91.766,65.7v-1.46a4.053,4.053,0,0,0-4.053-4.052H30.054A4.053,4.053,0,0,0,26,64.241v2.692Z" transform="translate(104.992 -6.235)"/><path class="o" d="M55.151,53.648s-.165,10.211,1.646,13.57,2.586,17.975,2.586,17.975,18.978,1.963,32.2-2.351,41.365-6.079,41.365-6.079L128.207,44.8s-23.427-1.5-36.754,4.854S55.151,53.648,55.151,53.648Z" transform="translate(95.936 -1.407)"/><path class="m" d="M55.151,53.648s-.165,10.211,1.646,13.57,2.586,17.975,2.586,17.975,18.978,1.963,32.2-2.351,41.365-6.079,41.365-6.079L128.207,44.8s-23.427-1.5-36.754,4.854S55.151,53.648,55.151,53.648Z" transform="translate(95.936 -1.407)"/><path class="o" d="M61.193,58.4s-.594,8.425.9,11.117,1.559,14.709,1.559,14.709,17.079.792,29.228-3.343,37.679-6.818,37.679-6.818l-2.9-26.138s-21.124-.217-33.453,5.6S61.193,58.4,61.193,58.4Z" transform="translate(94.094 -2.424)"/><ellipse class="m" cx="4.434" cy="9.51" rx="4.434" ry="9.51" transform="matrix(0.992, -0.124, 0.124, 0.992, 181.356, 55.343)"/><path class="e" d="M112.388,22.283s-22.759,5.76-33.492,15.9-33.326,14.94-33.326,14.94,2.976,9.767,5.73,12.41,7.975,16.316,7.975,16.316S77.938,77.892,89.2,69.724s37.508-18.483,37.508-18.483Z" transform="translate(98.912 5.542)"/><path class="o" d="M45.073,51S48.048,60.77,50.8,63.412s7.975,16.315,7.975,16.315S77.44,75.772,88.7,67.6s37.506-18.479,37.506-18.479L111.89,20.163s-22.758,5.76-33.491,15.9S45.073,51,45.073,51Z" transform="translate(99.066 6.201)"/><path class="m" d="M45.073,51S48.048,60.77,50.8,63.412s7.975,16.315,7.975,16.315S77.44,75.772,88.7,67.6s37.506-18.479,37.506-18.479L111.89,20.163s-22.758,5.76-33.491,15.9S45.073,51,45.073,51Z" transform="translate(99.066 6.201)"/><path class="o" d="M52.528,54.5s2.021,8.2,4.265,10.306,6,13.519,6,13.519,16.5-4.488,26.792-12.153,33.772-18.041,33.772-18.041L112.57,24.132S92.4,30.406,82.451,39.73,52.528,54.5,52.528,54.5Z" transform="translate(96.75 4.968)"/><ellipse class="m" cx="4.434" cy="9.51" rx="4.434" ry="9.51" transform="matrix(0.907, -0.422, 0.422, 0.907, 173.9, 50.866)"/><path class="m" d="M93.324,68.421v40.556a3.507,3.507,0,0,1-3.508,3.507h-60.3a3.507,3.507,0,0,1-3.505-3.507V64.333a6.193,6.193,0,0,0,3.505.588h60.3a3.508,3.508,0,0,1,3.508,3.5Z" transform="translate(104.991 -7.523)"/><path class="d" d="M93.324,69.169v40.556a3.508,3.508,0,0,1-3.508,3.507h-60.3a3.507,3.507,0,0,1-3.505-3.507V65.08a6.213,6.213,0,0,0,3.505.588h60.3a3.508,3.508,0,0,1,3.508,3.5Z" transform="translate(104.991 -7.755)"/><path class="m" d="M114.828,92.766v12.97H102.25a6.485,6.485,0,1,1,0-12.97Z" transform="translate(83.316 -16.358)"/><path class="n" d="M115.077,92.265v12.972H102.5a6.485,6.485,0,1,1,0-12.97Z" transform="translate(83.238 -16.202)"/><circle class="m" cx="2.529" cy="2.529" r="2.529" transform="translate(183.811 80.365)"/><circle class="p" cx="2.529" cy="2.529" r="2.529" transform="translate(183.983 80.022)"/><path class="q" d="M151.634,91.284c.1,1.083-.719,2.134-.481,3.194.052.227.149.441.185.67A2.576,2.576,0,0,1,150.7,96.9l-3.08,4.519a2.806,2.806,0,0,1-.44.543,4.553,4.553,0,0,1-2.245.627,3.837,3.837,0,0,0-1.5.665.1.1,0,0,0-.014.132,1.293,1.293,0,0,0,1.119.525c.081.107,0,.263-.118.34-.166.118-.393.146-.426.426a.462.462,0,0,0,.056.282.876.876,0,0,0,.538.375,3.2,3.2,0,0,0,3.016-1.026c.8-.779,1.371-1.763,2.154-2.557.434-.438.926-.815,1.373-1.24a15.72,15.72,0,0,0,2.252-2.914,3.251,3.251,0,0,0,.488-.992c.085-.361.045-.725.14-1.074a3.957,3.957,0,0,1,.738-1.207,3.994,3.994,0,0,0,.839-2.6,2.492,2.492,0,0,0-1.521-2.157,1.352,1.352,0,0,0-.852-.052,2.025,2.025,0,0,0-.868.69l-.588.676a1.584,1.584,0,0,0-.341.517.542.542,0,0,0,.118.575" transform="translate(68.515 -15.334)"/><path class="r" d="M151.634,91.284c.1,1.083-.719,2.134-.481,3.194.052.227.149.441.185.67A2.576,2.576,0,0,1,150.7,96.9l-3.08,4.519a2.806,2.806,0,0,1-.44.543,4.553,4.553,0,0,1-2.245.627,3.837,3.837,0,0,0-1.5.665.1.1,0,0,0-.014.132,1.293,1.293,0,0,0,1.119.525c.081.107,0,.263-.118.34-.166.118-.393.146-.426.426a.462.462,0,0,0,.056.282.876.876,0,0,0,.538.375,3.2,3.2,0,0,0,3.016-1.026c.8-.779,1.371-1.763,2.154-2.557.434-.438.926-.815,1.373-1.24a15.72,15.72,0,0,0,2.252-2.914,3.251,3.251,0,0,0,.488-.992c.085-.361.045-.725.14-1.074a3.957,3.957,0,0,1,.738-1.207,3.994,3.994,0,0,0,.839-2.6,2.492,2.492,0,0,0-1.521-2.157,1.352,1.352,0,0,0-.852-.052,2.025,2.025,0,0,0-.868.69l-.588.676a1.584,1.584,0,0,0-.341.517.542.542,0,0,0,.118.575" transform="translate(68.515 -15.334)"/><path class="s" d="M157.515,131.974a3.565,3.565,0,0,1-2.292.34c-.126-.015-.275-.025-.353.073-.118.141.021.353.165.462a3.391,3.391,0,0,0,1.574.648,10.369,10.369,0,0,0,1.54.1,26.039,26.039,0,0,0,4.21-.154.6.6,0,0,0,.235-.068.43.43,0,0,0,.174-.265,1.049,1.049,0,0,0-.366-1,3.069,3.069,0,0,0-.982-.527l-1.223-.476a3.143,3.143,0,0,0-1.058-.384C158.554,130.766,158,131.69,157.515,131.974Z" transform="translate(64.964 -28.152)"/><path class="r" d="M157.515,131.974a3.565,3.565,0,0,1-2.292.34c-.126-.015-.275-.025-.353.073-.118.141.021.353.165.462a3.391,3.391,0,0,0,1.574.648,10.369,10.369,0,0,0,1.54.1,26.039,26.039,0,0,0,4.21-.154.6.6,0,0,0,.235-.068.43.43,0,0,0,.174-.265,1.049,1.049,0,0,0-.366-1,3.069,3.069,0,0,0-.982-.527l-1.223-.476a3.143,3.143,0,0,0-1.058-.384C158.554,130.766,158,131.69,157.515,131.974Z" transform="translate(64.964 -28.152)"/><path class="h" d="M159.552,105.866a3.253,3.253,0,0,0-.91,2.3,5.119,5.119,0,0,0,.507,1.267,8.942,8.942,0,0,1,.513,1.782c.19.886.382,1.775.5,2.676.133,1.017-.491,3.959-.549,4.983a1.053,1.053,0,0,1-.215.691c-.067.071-.156.127-.187.219a.374.374,0,0,0,.041.259,2.845,2.845,0,0,0,1.528,1.4,12.087,12.087,0,0,0,2.947.775.588.588,0,0,0,.277-.036.54.54,0,0,0,.214-.246c.511-.978.02-4.455.027-5.559.007-.92.225-1.835.185-2.754-.033-.738-.235-1.46-.3-2.2a12.959,12.959,0,0,1,.326-3.61c.169-.915.34-1.829.557-2.732a5.246,5.246,0,0,1,.588-1.586c.235-.38.565-.7.839-1.058a4.775,4.775,0,0,0,.94-3.5,9.16,9.16,0,0,0-1.917.51,5.973,5.973,0,0,0-1.709,1.1,14.364,14.364,0,0,0-1.077,1.332q-.751.916-1.484,1.844Q160.354,104.791,159.552,105.866Z" transform="translate(63.784 -18.273)"/><path class="r" d="M159.552,105.809a3.255,3.255,0,0,0-.91,2.3,5.109,5.109,0,0,0,.507,1.268,8.931,8.931,0,0,1,.513,1.781c.19.888.382,1.776.5,2.675.133,1.018-.491,3.959-.549,4.983a1.056,1.056,0,0,1-.215.692c-.067.069-.156.126-.187.217a.373.373,0,0,0,.041.259,2.879,2.879,0,0,0,1.528,1.411,11.356,11.356,0,0,0,2.947.551.588.588,0,0,0,.277-.036.531.531,0,0,0,.214-.245c.511-.978.02-4.232.027-5.337.007-.922.225-1.835.185-2.755-.033-.738-.235-1.46-.3-2.195a12.963,12.963,0,0,1,.326-3.611c.169-.913.34-1.828.557-2.732a5.246,5.246,0,0,1,.588-1.586c.235-.38.565-.7.839-1.058a4.773,4.773,0,0,0,.94-3.5,9.161,9.161,0,0,0-1.917.51,6,6,0,0,0-1.709,1.1,14.194,14.194,0,0,0-1.077,1.331q-.751.916-1.484,1.846Q160.354,104.733,159.552,105.809Z" transform="translate(63.784 -18.257)"/><circle class="q" cx="2.853" cy="2.853" r="2.853" transform="translate(214.82 66.974)"/><path class="q" d="M154.256,82.8a3.7,3.7,0,0,0,2.369,1.653l-.215.782a7.41,7.41,0,0,1-1.826,3.694,1.717,1.717,0,0,0-.289-1.335,5.034,5.034,0,0,0-.969-1.012l-1.642-1.422a.5.5,0,0,1-.118-.139.417.417,0,0,1,0-.313,3.812,3.812,0,0,1,1.293-1.5,4.479,4.479,0,0,0,.65-.757C153.837,81.984,154.041,82.454,154.256,82.8Z" transform="translate(65.986 -13.092)"/><path class="h" d="M145.981,78.026l-.065-.536c.45.118.878-.266,1.166-.662s.555-.863.993-1.029a2.058,2.058,0,0,1,1.606.386,5.077,5.077,0,0,0,1.842.6,1.212,1.212,0,0,1,.3.049,1.059,1.059,0,0,1,.537.911,3.562,3.562,0,0,0,.2,1.114c.118.255.336.444.47.7.353.675.012,1.6.38,2.259l-.915-.838c-.083-.076-.2-.156-.294-.092-.073.052-.079.163-.108.253a.48.48,0,0,1-.651.235,1.866,1.866,0,0,1-.588-.533,3.568,3.568,0,0,0-1.451-1.1,1.862,1.862,0,0,0-1.528.1c-.427.241-.739.8-1.263.823-.717.027-1.016-1.308-1.347-1.836a.647.647,0,0,0,.188-.809C145.506,78,145.97,77.943,145.981,78.026Z" transform="translate(67.933 -11.066)"/><path class="i" d="M94.689,54.554a5.551,5.551,0,0,0-.634.665,1.332,1.332,0,0,0-.292.855.437.437,0,0,0,.082.25.212.212,0,0,0,.235.072.316.316,0,0,0,.118-.1,5.674,5.674,0,0,1,.395-.428c.051-.051.118-.1.186-.085a.2.2,0,0,1,.08.053.541.541,0,0,1,.166.259.609.609,0,0,1-.182.5,1.283,1.283,0,0,0-.307.454.2.2,0,0,0,0,.146.219.219,0,0,0,.092.078,1.312,1.312,0,0,0,1.11.073c.235-.1.444-.259.687-.343a1.587,1.587,0,0,0,.3-.118.63.63,0,0,0,.269-.4,1.662,1.662,0,0,0,.018-.495,5.691,5.691,0,0,0-.4-1.861.235.235,0,0,0-.068-.1.217.217,0,0,0-.118-.032,2.8,2.8,0,0,0-1.085-.074.766.766,0,0,0-.256.228C95.028,54.206,94.689,54.476,94.689,54.554Z" transform="translate(83.937 -4.275)"/><path class="h" d="M93.065,49.521c0-.287-.353-.979.208-1.025,0-.307-.434-.5-.353-.823.026-.108.118-.2.128-.307.035-.314-.531-.484-.437-.785.035-.118.16-.186.187-.3.063-.272-.422-.393-.431-.671,0-.094.053-.182.048-.276,0-.118-.1-.207-.159-.309-.147-.262-.075-.668-.343-.8.177.015.235-.248.162-.409s-.222-.3-.223-.48a.724.724,0,0,0,0-.2c-.049-.172-.33-.186-.377-.353a1.5,1.5,0,0,1-.006-.193c-.019-.133-.155-.217-.283-.255a1.155,1.155,0,0,1-.379-.135c-.082-.062-.178-.166-.266-.118-.033.02-.049.058-.074.086-.106.123-.308.069-.441-.021a1.811,1.811,0,0,1-.671-1.212c-.083-.467-.081-.949-.186-1.411a3.015,3.015,0,0,0-.127-.423,2.227,2.227,0,0,1-.2-.421c-.021-.27.538-.086.751-.059a3.346,3.346,0,0,1,.61.118,6.524,6.524,0,0,1,.624.274c.849.375,1.874.421,2.556,1.051a2.142,2.142,0,0,0,.705.572,3.192,3.192,0,0,1,.395.1c.323.152.374.581.55.891a1.748,1.748,0,0,1,.145.259,1,1,0,0,1,.047.329l.025.815a30.041,30.041,0,0,1-.066,4.09,3.353,3.353,0,0,0,.015,1.339c.035.118.085.228.118.347a2.114,2.114,0,0,1,.045.423l.019.528a.165.165,0,0,1-.026.118.169.169,0,0,1-.142.034c-.735-.066-1.478-.48-2.171-.229" transform="translate(85.466 0.493)"/><ellipse class="d" cx="8.694" cy="1.257" rx="8.694" ry="1.257" transform="translate(203.365 88.056)"/><path class="t" d="M142.272,86.223c-.153-.655-.248-1.23-.248-1.23a2.534,2.534,0,0,0-.284-1.247v-.179h0V82.251a4.49,4.49,0,0,1,.333-.69,5.192,5.192,0,0,0,0-1.93,8.541,8.541,0,0,1-.665-3.495c.213-1.357-1.8-6.023-1.8-6.023a5.945,5.945,0,0,1,.189-1.333,1.017,1.017,0,0,0,.026-.28v-.024a10.359,10.359,0,0,0-.738-2.571l.1-3.2a9.394,9.394,0,0,0-.284-4.414c-.257-.883-.422-1.589-.527-2.135-.012-.061-.024-.118-.033-.177,1.515-.235,2.673-.423,2.673-.423s-.879-3.678-1.473-4.322a8.5,8.5,0,0,1-1.069-2.667s-.309-2.6.19-3.356a5.046,5.046,0,0,0,.57-2.069s1.139-.823,1.283-1.2a6.1,6.1,0,0,0,.38-1.632c0-.436-.142-.823-.1-1.058s-.333-1.1-.142-1.518a1.114,1.114,0,0,0,.075-.4.052.052,0,0,0,0-.012h0a5.584,5.584,0,0,0-.1-1.079,3.062,3.062,0,0,0-1.128-.6l-.025-.1-.065-.259a1.253,1.253,0,0,0-.112-.066v-.094l-.011-.374.179-.839c.353-1.46-1.6-1.677-1.6-1.677a1.029,1.029,0,0,0-.552-.484c-.391-.138-.065,2.2.118,2.351a9.2,9.2,0,0,1,.769,1.2h0l.033.059a.824.824,0,0,0-.089.094l.074.507.012.078a2.1,2.1,0,0,0-.312.53,1.144,1.144,0,0,1,.286.823,2.636,2.636,0,0,0,.118,1.011c-.021-.025-.272-.3-.522-.229s-.95.276-.95.276-.522.092-.47.207-.353.621-.353.621l-1.4-1.331c-.014-.04-.029-.08-.041-.118a3.234,3.234,0,0,1-.118-.588,3.209,3.209,0,0,0,.449-.142.969.969,0,0,0,.388-.249,1.5,1.5,0,0,0,.227-.605,8.9,8.9,0,0,1,.521-1.161,3.776,3.776,0,0,0,.265-2.09,1.364,1.364,0,0,0-.215-.611c-.229-.315-.645-.443-.947-.695s-.5-.636-.85-.823a1.686,1.686,0,0,0-1.065-.092,5.74,5.74,0,0,0-1.99.724,1.036,1.036,0,0,1-.665.219.869.869,0,0,1-.48-.353.023.023,0,0,0-.009-.038,2.48,2.48,0,0,0-.219,1.051,1.3,1.3,0,0,0,.007.168v.107h0a.267.267,0,0,1-.011.074.534.534,0,0,1-.132.189,1.269,1.269,0,0,0-.118.156.194.194,0,0,1,.019-.058.836.836,0,0,0-.146.443.452.452,0,0,0,.106.317,1.529,1.529,0,0,0,.229.183,2.673,2.673,0,0,0-.042.47,2.717,2.717,0,0,0,1.324,2.317c.016.039.032.079.047.118a3.347,3.347,0,0,1,.255,1.528.715.715,0,0,1-.016.111c-.006.036-.035.039-.051.059h0s-2.319.024-2.865-.47-1.378,1.207-1.378,1.207-.831.161-1,0-1.139-.022-1.139-.022a2.1,2.1,0,0,0-1.449-.529,4.254,4.254,0,0,0-1.058-.588h0l-.026-.009h0a1.185,1.185,0,0,0-.523-.066,10.551,10.551,0,0,1-1.473-1.448c-.333-.508-1.916-2.383-1.923-2.391v-.091l-.018-.273a.976.976,0,0,1-.142.012c-.008-.027-.02-.059-.032-.1a5.258,5.258,0,0,0-.336-.772s0-.344.1-.431a5.944,5.944,0,0,0-.041-1.351s-1.027-2.4-1.948-.609c0,0-1.74,1.16-.28,2.512,0,0,.588.282.665.505.054.145.252.55.384.823l.06.118-.016.014.021.226.009.087c-.275.156-.462.312-.416.428a2.571,2.571,0,0,1,.166.621,16.545,16.545,0,0,1,2.281,3.61s5.416,3.219,7.2,3.448l-.315,1.6a12.8,12.8,0,0,0-.071,1.311c.024.344-.214,1.908-.214,1.908A12.758,12.758,0,0,1,125,50.48a4.416,4.416,0,0,0-.214,1.7,11.622,11.622,0,0,1-.353,1.954,4.991,4.991,0,0,0-.072,1.955s-.9,2.069,1.259.667c0,0,1.058-.066,2.283-.108v.118c0,.158,0,.328-.008.507-.016,1.185-.023,2.821.031,4.053.1,2.184.761,6.507.761,6.507v2.176a2.961,2.961,0,0,0-.063.621,4.039,4.039,0,0,0,.588,2.174l.167,1.448a5.65,5.65,0,0,1,.4,1.528.8.8,0,0,1-.016.138.925.925,0,0,0-.019.222,12.509,12.509,0,0,0,.374,2.233s.024,1.586.261,1.679c.2.079-.272.913-.413,1.153a.327.327,0,0,1-.008-.045l-.029.047a1.125,1.125,0,0,0-.074.4.576.576,0,0,0,.263.557c.451.276.694.505.31.6a3.989,3.989,0,0,0-.418.088.181.181,0,0,0-.02-.053.252.252,0,0,0-.156.277,1.176,1.176,0,0,0,.14.534,5.823,5.823,0,0,0,.643,1.176l.182-.02a.889.889,0,0,1-.106.2.757.757,0,0,1-.268.235.83.83,0,0,1-.326.112.917.917,0,0,0-.672.327.7.7,0,0,0,.082,1.091l1.7.588s2.922.38,2.767-.276-.249-1.23-.249-1.23a2.592,2.592,0,0,0-.235-1.163,1.507,1.507,0,0,0-.1-.172l.1-.011a5.381,5.381,0,0,1,.5-1.725c.066-.063.081-.118.066-.15.029-.079-.046-.125-.141-.152l-.021.058a1.386,1.386,0,0,0-.283-.032s-.1-.758.214-1.034a.293.293,0,0,0,.06-.226,1.212,1.212,0,0,0-.033-.309.148.148,0,0,1-.011.019,11.136,11.136,0,0,0-.682-1.783,2.18,2.18,0,0,1,.167-.965,24.313,24.313,0,0,0-.025-3.748,11.345,11.345,0,0,0-.142-2.459,2.76,2.76,0,0,1,.261-1.7v-.061l-.027-.264a.068.068,0,0,0,0,.016c-.048-.444-.139-1.25-.206-1.621-.1-.529.025-3.056.025-3.056l.427-1.081.761,1.863.808,2.483a2.121,2.121,0,0,1,.409,1.058v.078a1.355,1.355,0,0,0-.009.166,1.476,1.476,0,0,0,.246.885,3.829,3.829,0,0,0,.547,1.471,1.32,1.32,0,0,1,.333.873,15.266,15.266,0,0,0,.588,2,2.972,2.972,0,0,1,.167,1.156h0v.061s.056.609.054,1.119v.182a.052.052,0,0,0,0-.013,1.77,1.77,0,0,1-.049.414l-.007.024a.3.3,0,0,1,.008-.086,4.32,4.32,0,0,0-.118,1.058,2.74,2.74,0,0,0,.453,1.763c.642.736,1.045.644,1.045.644s-.308.919-.689,1.1a.179.179,0,0,0-.04.026.4.4,0,0,0-.009-.054.448.448,0,0,0-.118.343,2.466,2.466,0,0,0,.47,1.362.768.768,0,0,0,.321.188.509.509,0,0,1-.06.036,1.279,1.279,0,0,1-.13.062.686.686,0,0,1-.194.051.905.905,0,0,0-.672.327.7.7,0,0,0,.082,1.09l1.7.588S142.425,86.878,142.272,86.223Z" transform="translate(77.267 3.151)"/><path class="u" d="M137.4,111.7l-1.646-.588a.714.714,0,0,1-.08-1.091.879.879,0,0,1,.651-.327.78.78,0,0,0,.314-.112.752.752,0,0,0,.261-.235,1.214,1.214,0,0,0,.187-.636s1.806-.529,2.3,0a1.337,1.337,0,0,1,.219.321,2.686,2.686,0,0,1,.235,1.163s.092.574.241,1.23S137.4,111.7,137.4,111.7Z" transform="translate(70.982 -21.239)"/><path class="u" d="M149.072,110.522l-1.646-.588a.713.713,0,0,1-.08-1.09.869.869,0,0,1,.65-.327.61.61,0,0,0,.188-.051,1.249,1.249,0,0,0,.127-.062,1.041,1.041,0,0,0,.448-.873s1.8-.529,2.3,0a1.3,1.3,0,0,1,.173.235,2.612,2.612,0,0,1,.275,1.248s.092.575.235,1.23S149.072,110.522,149.072,110.522Z" transform="translate(67.355 -20.873)"/><path class="m" d="M140.039,108.71a1.337,1.337,0,0,1,.219.321h0l-2.7.314a1.215,1.215,0,0,0,.187-.636S139.546,108.181,140.039,108.71Z" transform="translate(70.331 -21.239)"/><path class="m" d="M151.711,107.77v.507c-.421.692-2.456.541-3.047.194a1.249,1.249,0,0,0,.127-.062,1.041,1.041,0,0,0,.448-.873s1.8-.529,2.3,0a1.3,1.3,0,0,1,.173.235Z" transform="translate(66.879 -20.874)"/><path class="h" d="M147.355,92.7a4.6,4.6,0,0,0-.321.69V95.2c-.461.758-2.851.505-3.174.092s-.661-1.491-.3-1.677.667-1.1.667-1.1-.391.092-1.012-.644a3.8,3.8,0,0,1-.321-2.758,8.146,8.146,0,0,0,0-1.7,3.418,3.418,0,0,0-.16-1.219,15.174,15.174,0,0,1-.575-2,1.353,1.353,0,0,0-.322-.873,3.934,3.934,0,0,1-.529-1.472,1.508,1.508,0,0,1-.229-.989,2.008,2.008,0,0,0-.391-1.2l-.782-2.484-.736-1.862-.414,1.08s-.118,2.529-.022,3.056.235,1.931.235,1.931a2.835,2.835,0,0,0-.253,1.7,11.611,11.611,0,0,1,.132,2.462,25.084,25.084,0,0,1,.022,3.746,2.244,2.244,0,0,0-.161.966s.94,2.022.644,2.3-.207,1.034-.207,1.034.643,0,.368.276a5.54,5.54,0,0,0-.483,1.724l-2.78.326a5.78,5.78,0,0,1-.622-1.176c-.368-.855.068-.758.438-.851s.136-.321-.3-.6-.183-.9-.183-.9.667-1.126.436-1.218-.253-1.679-.253-1.679a10.212,10.212,0,0,1-.344-2.391,4.574,4.574,0,0,0-.368-1.723l-.161-1.448a3.985,3.985,0,0,1-.505-2.737V78.971s-.644-4.321-.736-6.505c-.059-1.4-.042-3.308-.024-4.5.012-.668.024-1.111.024-1.111l9.931-1.034a8.3,8.3,0,0,0,.18,1.475c.1.545.261,1.252.51,2.135a9.7,9.7,0,0,1,.276,4.413l-.093,3.2s.873,2.137.69,2.873a6.127,6.127,0,0,0-.186,1.335s1.954,4.667,1.747,6.023a8.771,8.771,0,0,0,.643,3.495A5.285,5.285,0,0,1,147.355,92.7Z" transform="translate(71.555 -7.986)"/><path class="r" d="M145.312,87.256l3.023-.4S146.623,88.6,145.312,87.256Z" transform="translate(67.92 -14.521)"/><path class="m" d="M148.816,82.567s.1,1.07-.551,1.472C148.264,84.039,149.437,83.856,148.816,82.567Z" transform="translate(67.003 -13.189)"/><path class="m" d="M147.184,77.632s-2.527,2.081-3.447,1.908S147.184,77.632,147.184,77.632Z" transform="translate(68.449 -11.655)"/><path class="m" d="M138.984,88.854s-1.92.436-1.977,1.207S138.984,88.854,138.984,88.854Z" transform="translate(70.501 -15.142)"/><path class="r" d="M139.55,102.763s-2.712.505-1.942.85a13.165,13.165,0,0,0,2.035.621S140.519,104.28,139.55,102.763Z" transform="translate(70.357 -19.464)"/><g class="v" transform="translate(205.168 58.799)"><path d="M136.718,104.614a.535.535,0,0,1-.248-.393l-.028.048s-.253.621.185.9c.049.032.1.063.141.094.081-.015.168-.027.252-.048C137.389,105.119,137.156,104.89,136.718,104.614Z" transform="translate(-134.469 -78.716)"/><path d="M141.887,104.311c.075-.068.073-.245.027-.47a1.322,1.322,0,0,0-.154.665A.574.574,0,0,1,141.887,104.311Z" transform="translate(-136.144 -78.598)"/><path d="M141.256,87.931a3.136,3.136,0,0,0-.183.845,3.408,3.408,0,0,1,.21-.581Z" transform="translate(-135.931 -73.654)"/><path d="M150.327,86.068a1.078,1.078,0,0,0,.025-.252c-.034.172-.058.33-.075.47C150.292,86.215,150.309,86.147,150.327,86.068Z" transform="translate(-138.791 -72.997)"/><path d="M141.216,99.558a1.473,1.473,0,0,0,.068-.511,1.736,1.736,0,0,0-.133.645A.619.619,0,0,1,141.216,99.558Z" transform="translate(-135.955 -77.108)"/><path d="M140.282,106.079a9.128,9.128,0,0,0-.316,1.411l-2.78.321a5.782,5.782,0,0,1-.622-1.176,2.131,2.131,0,0,1-.079-.2c-.167.076-.235.249-.014.754a5.877,5.877,0,0,0,.623,1.176l2.78-.322a5.532,5.532,0,0,1,.482-1.725C140.5,106.182,140.411,106.113,140.282,106.079Z" transform="translate(-134.457 -79.293)"/><path d="M135.77,89.876s.022,1.586.253,1.677h0c.118-.262.194-.511.09-.552-.235-.092-.253-1.679-.253-1.679a10.213,10.213,0,0,1-.344-2.391,4.574,4.574,0,0,0-.368-1.723l-.161-1.448a3.985,3.985,0,0,1-.505-2.737V78.789s-.644-4.321-.736-6.505c-.059-1.4-.042-3.308-.024-4.5,0-.215.007-.406.011-.567l-.079.008s-.013.442-.024,1.111c-.019,1.191-.036,3.1.024,4.5.092,2.184.735,6.507.735,6.507v2.234a3.987,3.987,0,0,0,.507,2.735l.16,1.448a4.6,4.6,0,0,1,.368,1.724A10.233,10.233,0,0,0,135.77,89.876Z" transform="translate(-133.613 -67.218)"/><path d="M148.368,107.2a2.688,2.688,0,0,1-.441-1.092c-.283.256.042,1.251.353,1.646.321.414,2.712.667,3.174-.093v-.437C150.827,107.838,148.671,107.591,148.368,107.2Z" transform="translate(-138.027 -79.302)"/><path d="M153.539,103.916a4.645,4.645,0,0,0-.322.69v.326a4.817,4.817,0,0,1,.235-.461,1.41,1.41,0,0,0,.1-.57Z" transform="translate(-139.704 -78.616)"/><path d="M148.227,102.918a4.544,4.544,0,0,0,.227-.547s-.391.092-1.012-.644a3.266,3.266,0,0,1-.413-2.206,3.792,3.792,0,0,0,.321,2.759A1.637,1.637,0,0,0,148.227,102.918Z" transform="translate(-137.745 -77.255)"/><path d="M145.251,91.353a12.252,12.252,0,0,1,.046,1.362,1.857,1.857,0,0,1,.047-.213,7.982,7.982,0,0,0,0-1.7,3.4,3.4,0,0,0-.161-1.219,14.843,14.843,0,0,1-.569-2,1.353,1.353,0,0,0-.322-.873,3.934,3.934,0,0,1-.529-1.472,1.513,1.513,0,0,1-.235-.989,2,2,0,0,0-.39-1.2l-.782-2.483-.736-1.862-.415,1.081s0,.136-.014.353l.336-.878.736,1.859.782,2.483a2,2,0,0,1,.39,1.2,1.513,1.513,0,0,0,.235.989,3.92,3.92,0,0,0,.529,1.472,1.346,1.346,0,0,1,.321.873,15.124,15.124,0,0,0,.575,2A3.4,3.4,0,0,1,145.251,91.353Z" transform="translate(-135.967 -70.788)"/></g><path class="w" d="M148.863,34.715l-.173.839.011.374.007.275-.959.1-.107-.2h0a8.9,8.9,0,0,0-.744-1.2c-.178-.148-.494-2.483-.118-2.344a1,1,0,0,1,.534.483S149.2,33.255,148.863,34.715Z" transform="translate(67.519 2.352)"/><path class="m" d="M149.176,37.676l-.959.1-.107-.2h0a.845.845,0,0,1,1.058-.174Z" transform="translate(67.051 0.88)"/><path class="x" d="M149.393,38.17l-1.265.293-.027-.188-.072-.507a.871.871,0,0,1,1.225-.167l.063.257Z" transform="translate(67.076 0.841)"/><path class="w" d="M118.908,34.006l-1.351.724-.118-.254c-.128-.269-.32-.675-.373-.823-.08-.223-.643-.505-.643-.505a1.559,1.559,0,0,1,.27-2.512c.891-1.793,1.881.609,1.881.609a6.087,6.087,0,0,1,.041,1.351c-.1.085-.1.431-.1.431a5.306,5.306,0,0,1,.326.772C118.885,33.927,118.908,34.006,118.908,34.006Z" transform="translate(77.072 3.154)"/><path class="m" d="M119.62,35.728l-1.351.724-.118-.254c.19-.16.866-.705,1.089-.683a1.627,1.627,0,0,0,.32.008C119.6,35.65,119.62,35.728,119.62,35.728Z" transform="translate(76.36 1.431)"/><path class="x" d="M119.774,36.178l-1.518.748-.031-.326-.021-.226s.879-.754,1.139-.724a1.381,1.381,0,0,0,.4,0l.018.273Z" transform="translate(76.343 1.389)"/><path class="w" d="M142.051,41.469s-6.616.746-5.379.344a1.654,1.654,0,0,0,1.274-1.434,3.445,3.445,0,0,0-.246-1.528,6.663,6.663,0,0,0-.588-1.2s5.055-2.781,4.045-.253a4.077,4.077,0,0,0-.287,1.2,3.384,3.384,0,0,0,.13,1.213A3.612,3.612,0,0,0,142.051,41.469Z" transform="translate(70.653 1.174)"/><path class="m" d="M141.422,37.4a4.077,4.077,0,0,0-.287,1.2,2.326,2.326,0,0,1-1.669.374,2.987,2.987,0,0,1-1.5-.123,6.663,6.663,0,0,0-.588-1.2S142.434,34.869,141.422,37.4Z" transform="translate(70.385 1.176)"/><circle class="w" cx="2.735" cy="2.735" r="2.735" transform="translate(207.026 34.851)"/><path class="m" d="M142.051,42.9s-6.616.746-5.379.344a1.654,1.654,0,0,0,1.274-1.434,3.69,3.69,0,0,1,1.411-.751,1.98,1.98,0,0,1,1.2-.02,1.7,1.7,0,0,1,.436.2A3.612,3.612,0,0,0,142.051,42.9Z" transform="translate(70.653 -0.261)"/><path class="m" d="M149.425,38.35l-1.265.293-.027-.188a1.119,1.119,0,0,1,1.217-.416Z" transform="translate(67.044 0.661)"/><path class="m" d="M119.783,36.3l-1.518.748-.031-.326a11.069,11.069,0,0,1,1.528-.678Z" transform="translate(76.334 1.266)"/><path class="m" d="M143.773,67.3c-2.564.409-6.208.931-6.786.755a16.952,16.952,0,0,0-3.348-.085c.012-.668.024-1.111.024-1.111l9.931-1.034A8.3,8.3,0,0,0,143.773,67.3Z" transform="translate(71.547 -7.987)"/><path class="s" d="M141.363,57.486s-8.437,1.448-9.342,1.176a36.712,36.712,0,0,0-5.554.022c-2.092,1.4-1.219-.667-1.219-.667a5.143,5.143,0,0,1,.069-1.954,11.938,11.938,0,0,0,.347-1.956,4.555,4.555,0,0,1,.207-1.7,13.112,13.112,0,0,0,.553-2.62s.229-1.563.207-1.908.068-1.311.068-1.311l.3-1.609c-1.725-.229-6.966-3.448-6.966-3.448a16.615,16.615,0,0,0-2.206-3.609,2.66,2.66,0,0,0-.161-.621c-.138-.368,1.931-1.1,1.931-1.1s1.54,1.881,1.862,2.391a10.252,10.252,0,0,0,1.425,1.448,1.108,1.108,0,0,1,.505.066l.027.008h0a4.1,4.1,0,0,1,1.029.588,2,2,0,0,1,1.4.529s.94-.139,1.1.022.965,0,.965,0,.8-1.7,1.333-1.207,2.773.47,2.773.47a3.247,3.247,0,0,1,1.481-.823,1.988,1.988,0,0,1,1.2-.02,1.521,1.521,0,0,1,.47.235l1.365,1.333s.39-.507.344-.621.46-.207.46-.207.667-.207.919-.276.484.2.505.229a2.749,2.749,0,0,1-.118-1.011,1.194,1.194,0,0,0-.276-.823c.8-1.977,2.62-.322,2.62-.322a3.792,3.792,0,0,1,.024,1.494c-.183.414.183,1.287.138,1.518s.093.621.093,1.058a6.464,6.464,0,0,1-.368,1.632c-.133.368-1.241,1.2-1.241,1.2a5.19,5.19,0,0,1-.552,2.069c-.483.758-.18,3.351-.18,3.351a8.662,8.662,0,0,0,1.034,2.667C140.513,53.815,141.363,57.486,141.363,57.486Z" transform="translate(76.513 1.226)"/><path class="m" d="M133.688,44.513s-.253-.758-.483-.823a5.318,5.318,0,0,1-.667-.3l.148-.283s.863.235,1,.49A1.951,1.951,0,0,1,133.688,44.513Z" transform="translate(71.889 -0.928)"/><path class="m" d="M126.559,42.442c-.046.235-2.092.436-2.092.436l1.034-1.037h0l.026.009h0a4.1,4.1,0,0,1,1.032.591Z" transform="translate(74.397 -0.535)"/><circle class="y" cx="0.183" cy="0.183" r="0.183" transform="translate(194.853 38.569)"/><circle class="y" cx="0.183" cy="0.183" r="0.183" transform="translate(195.088 38.937)"/><circle class="y" cx="0.183" cy="0.183" r="0.183" transform="translate(195.319 39.277)"/><circle class="y" cx="0.183" cy="0.183" r="0.183" transform="translate(195.56 39.643)"/><circle class="y" cx="0.149" cy="0.149" r="0.149" transform="translate(217.263 39.657)"/><circle class="y" cx="0.149" cy="0.149" r="0.149" transform="translate(217.287 39.997)"/><circle class="y" cx="0.149" cy="0.149" r="0.149" transform="translate(217.307 40.336)"/><path class="m" d="M134.218,54.185c-.022-.027,5.161,6.517,9.183,2.735C143.405,56.922,137.049,57.784,134.218,54.185Z" transform="translate(71.367 -4.37)"/><path class="m" d="M129.9,59.121s3.1.085,3.425.977v.929a.6.6,0,0,1-.577,0c-.313-.169-2.188-1.121-2.848-.663Z" transform="translate(72.708 -5.904)"/><path class="s" d="M129.987,59.121s2.966.081,3.276.932v.884a.569.569,0,0,1-.553,0c-.3-.16-2.091-1.069-2.724-.631Z" transform="translate(72.682 -5.904)"/><path class="m" d="M132.36,49.352a9.978,9.978,0,0,0,1.2,2.063,8.1,8.1,0,0,0,1.881,1.819A36.471,36.471,0,0,1,132.36,49.352Z" transform="translate(71.945 -2.868)"/><path class="m" d="M130.888,44.125s.517,2.234,1.85,2.992Z" transform="translate(72.402 -1.244)"/><path class="m" d="M129.716,44.452c-.013-.041-.46,1.763,1.719,2.766C131.434,47.218,130.509,46.9,129.716,44.452Z" transform="translate(72.781 -1.346)"/><path class="m" d="M149.381,42.279a15.506,15.506,0,0,1,1.377,1.034S150.036,42.232,149.381,42.279Z" transform="translate(66.656 -0.67)"/><path class="u" d="M138.178,37.257a.431.431,0,0,0,.47.427,5.47,5.47,0,0,0,2.469-.235.941.941,0,0,0,.376-.249,1.547,1.547,0,0,0,.219-.605,8.8,8.8,0,0,1,.5-1.161,3.891,3.891,0,0,0,.272-2.087,1.41,1.41,0,0,0-.209-.61c-.221-.316-.624-.444-.917-.7s-.481-.636-.823-.823a1.58,1.58,0,0,0-1.032-.092,5.418,5.418,0,0,0-1.926.723.982.982,0,0,1-.644.219.862.862,0,0,1-.47-.363,2.546,2.546,0,0,0-.2,1.193.513.513,0,0,1-.006.18.541.541,0,0,1-.128.189.7.7,0,0,0-.13.859c.088.1.225.162.31.269.154.192.1.47.1.715a.368.368,0,0,0,.061.242.353.353,0,0,0,.337.081.918.918,0,0,1,.36-.034.6.6,0,0,1,.313.235A4.418,4.418,0,0,1,138.178,37.257Z" transform="translate(70.844 2.808)"/><g class="z" transform="translate(206.747 34.487)"><path d="M141.591,38.022a.94.94,0,0,1-.376.249,5.548,5.548,0,0,1-2.469.235.433.433,0,0,1-.471-.428,4.289,4.289,0,0,0-.7-1.618.6.6,0,0,0-.313-.241.964.964,0,0,0-.36.034.353.353,0,0,1-.337-.08.368.368,0,0,1-.061-.242c0-.247.055-.523-.1-.715-.086-.107-.222-.165-.31-.27a.536.536,0,0,1-.053-.548.627.627,0,0,0-.039.732c.088.1.225.162.31.269.154.193.1.47.1.715a.365.365,0,0,0,.06.242.353.353,0,0,0,.339.081.918.918,0,0,1,.36-.034.6.6,0,0,1,.313.235,4.3,4.3,0,0,1,.7,1.619.588.588,0,0,0,.2.373.57.57,0,0,0,.259.056,5.453,5.453,0,0,0,2.469-.235.931.931,0,0,0,.376-.249.718.718,0,0,0,.118-.221A.058.058,0,0,1,141.591,38.022Z" transform="translate(-135.903 -32.71)"/><path d="M136.432,33.274a.4.4,0,0,0,.083-.139.512.512,0,0,0,0-.18,2.55,2.55,0,0,1,.128-.99l-.015-.018a2.527,2.527,0,0,0-.2,1.192A.845.845,0,0,1,136.432,33.274Z" transform="translate(-136.065 -31.948)"/></g><path class="m" d="M138.5,42.418s3.417.454,3.724-.06" transform="translate(70.038 -0.695)"/><path class="m" d="M148.133,40.393s1.9,0,2.317.715" transform="translate(67.044 -0.085)"/><path class="s" d="M162.42,131.772a3.013,3.013,0,0,1-2.051.766c-.193,0-.46.036-.461.229a.323.323,0,0,0,.056.158,1.887,1.887,0,0,0,1.058.831,3.739,3.739,0,0,0,1.28.081l1.252-.065c.235-.013.47-.025.705-.054s.491-.078.737-.118a9.641,9.641,0,0,1,1.823-.085.552.552,0,0,0,.449-.118c.1-.118.047-.342.011-.518-.075-.363,0-.744-.069-1.109a1.947,1.947,0,0,0-1.278-1.361,2.688,2.688,0,0,0-2.1-.1A13.808,13.808,0,0,0,162.42,131.772Z" transform="translate(63.385 -27.967)"/><path class="h" d="M164.223,100.253c.11.525.62.927.634,1.464a2.286,2.286,0,0,1-.515,1.159,7.735,7.735,0,0,0-.525,1.19,18.171,18.171,0,0,1-1.542,3.068,2.455,2.455,0,0,0-.556,1.519,2.276,2.276,0,0,0,.267.726l.882,1.752a5.071,5.071,0,0,1,.45,1.106c.076.333.083.677.128,1.016.139,1.074.643,2.156.344,3.2-.026.089-.118.2-.189.135a3.35,3.35,0,0,1,.5,1.709,2.383,2.383,0,0,0,.008.962,1.052,1.052,0,0,1,.138.379,2.415,2.415,0,0,1-.051.26.573.573,0,0,0,.44.534c.236.079.494.073.732.145a4.494,4.494,0,0,1,1.176.806,2.5,2.5,0,0,0,1.354.441.341.341,0,0,0,.2-.04.323.323,0,0,0,.111-.242,1.345,1.345,0,0,0-.484-1.168.529.529,0,0,1-.18-.188.454.454,0,0,1-.016-.21,15.843,15.843,0,0,0-.052-2.892,4.392,4.392,0,0,1-.046-.92,3.761,3.761,0,0,0,.074-.765,4.064,4.064,0,0,0-.235-.734,5.286,5.286,0,0,1-.118-1.365,11.971,11.971,0,0,0-.387-2.351,1.778,1.778,0,0,0-.366-.849c-.183-.192-.48-.375-.41-.63a.747.747,0,0,1,.168-.25,1,1,0,0,0,.209-.766.344.344,0,0,0,.4-.186,6.2,6.2,0,0,0,3.1-3.527,1.164,1.164,0,0,1,.139-.315,1.419,1.419,0,0,1,.568-.368,4.312,4.312,0,0,0,1.492-1.521,2.689,2.689,0,0,0,.655-1.9l.036-1.381a.747.747,0,0,0-.026-.27.676.676,0,0,0-.149-.219,2.655,2.655,0,0,0-1.465-.79c-.376-.067-.761-.054-1.141-.086a14.188,14.188,0,0,0-2.205-.235,3.529,3.529,0,0,0-2.74,1.917C164.837,99.931,164.635,100.246,164.223,100.253Z" transform="translate(62.825 -17.873)"/><path class="aa" d="M155.433,87.025a1.543,1.543,0,0,1-.085.629.439.439,0,0,1-.516.264c.06-.135-.1-.289-.247-.273a.462.462,0,0,0-.326.28,1.04,1.04,0,0,0-.094.638,2.589,2.589,0,0,1,.162.8c-.033.226-.2.45-.11.659a1.068,1.068,0,0,0,.213.255.719.719,0,0,1-.076.987l2.224.045a1.57,1.57,0,0,0,.276,1.081,6.818,6.818,0,0,0,5.083,3.319.442.442,0,0,0-.107.676.628.628,0,0,0,.715.041,5.086,5.086,0,0,0,.611-.458,1.881,1.881,0,0,1,1.257-.339c.279.027.549.118.829.132.823.043,1.528-.549,2.321-.791a5.356,5.356,0,0,0,1.716-.538.684.684,0,0,0,.32-.662,1.106,1.106,0,0,0-.235-.389,6.722,6.722,0,0,1-.643-1.2,7.208,7.208,0,0,0-1.607-2.154,14.376,14.376,0,0,0-1.594-1.208,2.719,2.719,0,0,0-.43-.26,4.821,4.821,0,0,1-.588-.235,3.133,3.133,0,0,1-.612-.689,9.18,9.18,0,0,0-1.661-1.156,3.94,3.94,0,0,0-1.121-.759c-.212-.065-.436-.069-.648-.133-.481-.146-.831-.572-1.3-.745a5.227,5.227,0,0,0-1.176-.149,2.752,2.752,0,0,1-1.228-.468,1.457,1.457,0,0,0-.391-.228c-.6-.181-.644.929-.705,1.313A12.67,12.67,0,0,0,155.433,87.025Z" transform="translate(65.174 -13.626)"/><path class="q" d="M153.139,92.983c.1,1.084-.718,2.134-.48,3.2.051.226.148.441.183.67a2.569,2.569,0,0,1-.635,1.752l-3.08,4.52a2.841,2.841,0,0,1-.44.543,4.552,4.552,0,0,1-2.245.625,3.879,3.879,0,0,0-1.5.665.1.1,0,0,0-.019.135,1.293,1.293,0,0,0,1.118.525c.081.106,0,.263-.112.34-.165.118-.393.145-.426.426a.47.47,0,0,0,.056.282.878.878,0,0,0,.538.374,3.2,3.2,0,0,0,3.016-1.026c.8-.779,1.371-1.763,2.154-2.556.434-.44.926-.815,1.373-1.24a15.707,15.707,0,0,0,2.252-2.914,3.225,3.225,0,0,0,.488-.992c.083-.361.045-.726.14-1.076a3.953,3.953,0,0,1,.738-1.206,3.989,3.989,0,0,0,.839-2.6,2.492,2.492,0,0,0-1.521-2.157,1.367,1.367,0,0,0-.852-.052,2.019,2.019,0,0,0-.868.691l-.588.675a1.574,1.574,0,0,0-.33.518.542.542,0,0,0,.118.576" transform="translate(68.048 -15.862)"/><path class="aa" d="M158.22,87.332a1.685,1.685,0,0,0-1.136.353,1.616,1.616,0,0,0-.287.449,4.472,4.472,0,0,0-.568,1.787,8.174,8.174,0,0,0,.206,1.493,5.712,5.712,0,0,1-.128,1.254,8.707,8.707,0,0,0,1.62-.623,5.424,5.424,0,0,1,.949-.493,2.854,2.854,0,0,1,1.753.341c.025-.322-.217-.884-.192-1.207a1.348,1.348,0,0,1,.072-.4,2.425,2.425,0,0,1,.243-.387,1.582,1.582,0,0,0-.142-1.854,2.582,2.582,0,0,0-1.655-.705,7.157,7.157,0,0,0-1.156-.04" transform="translate(64.528 -14.657)"/></g></svg>