<svg xmlns="http://www.w3.org/2000/svg" xmlns:xlink="http://www.w3.org/1999/xlink" viewBox="0 0 40 40"><defs><style>.a{fill:#fff;}.b{clip-path:url(#a);}.c{fill:#b0d3f0;}.d{fill:#90e1ae;}.e{fill:#3cb886;}.f{fill:#b0f0c1;}</style><clipPath id="a"><rect class="a" width="40" height="40" transform="translate(25 18)"/></clipPath></defs><g class="b" transform="translate(-25 -18)"><g transform="translate(25 18.338)"><path class="c" d="M39.959,24.894l-1.709-4.861-5.19-2.267v-.007L30.752,4.373a.69.69,0,0,0-.425-.53L20.869.063a.7.7,0,0,0-.907.384L18.853,3.16l-9-2.881A.7.7,0,0,0,9,1.221l7.226,16.391L0,26.31,2.5,38.781a.7.7,0,0,0,1.228.293L12.59,27.837l16.1,1.96L34.365,24l4.687,1.778a.7.7,0,0,0,.906-.886Zm0,0" transform="translate(0 -0.012)"/><path class="d" d="M28.042,5.443,21.067,23.578,18.459,17.67,11.233,1.28a.7.7,0,0,1,.851-.942l9,2.881Zm0,0" transform="translate(-2.235 -0.071)"/><path class="e" d="M37.774,17.758,33.4,15.847,30.521,5.385,23.567,3.16,24.676.447a.7.7,0,0,1,.907-.384L35.04,3.844a.69.69,0,0,1,.425.53Zm0,0" transform="translate(-4.713 -0.012)"/><path class="f" d="M18.832,27.92,0,30.71l16.224-8.7Zm0,0" transform="translate(0 -4.412)"/><path class="f" d="M45.423,23.991,41.537,27.96l-5.678,5.8V19.806l4.373,1.911v.007Zm0,0" transform="translate(-7.172 -3.971)"/><path class="e" d="M47.644,30.784l-4.687-1.778,3.885-3.969L48.551,29.9a.7.7,0,0,1-.906.886Zm0,0" transform="translate(-8.591 -5.017)"/><path class="f" d="M33.4,17.19,23.54,24.863,30.515,6.728Zm0,0" transform="translate(-4.708 -1.355)"/><path class="d" d="M28.688,19.806v13.95L12.59,31.8,0,30.269l18.832-2.79Zm0,0" transform="translate(0 -3.971)"/><path class="e" d="M12.59,34.412,3.725,45.648A.7.7,0,0,1,2.5,45.355L0,32.884Zm0,0" transform="translate(0 -6.587)"/></g></g></svg>